0
SECTION
2
HEADER
9
$INSUNITS
70
4
0
ENDSEC
0
SECTION
2
TABLES
0
TABLE
2
LTYPE
0
LTYPE
72
65
70
64
2
CONTINUOUS
3
______
73
0
40
0
0
ENDTAB
0
TABLE
2
LAYER
0
ENDTAB
0
ENDSEC
0
SECTION
2
ENTITIES
0
LINE
8
0
10
45.8118599
20
-53.2097123
11
63.7433645
21
-51.6409089
0
LINE
8
0
10
63.7433645
20
-51.6409089
11
65.3121679
21
-69.5724135
0
LINE
8
0
10
65.3121679
20
-69.5724135
11
47.3806633
21
-71.1412169
0
LINE
8
0
10
47.3806633
20
-71.1412169
11
45.8118599
21
-53.2097123
0
LINE
8
0
10
66.0094138
20
-77.5419711
11
83.9409184
21
-75.9731677
0
LINE
8
0
10
83.9409184
20
-75.9731677
11
85.5097218
21
-93.9046723
0
LINE
8
0
10
85.5097218
20
-93.9046723
11
67.5782172
21
-95.4734757
0
LINE
8
0
10
67.5782172
20
-95.4734757
11
66.0094138
21
-77.5419711
0
LINE
8
0
10
64.5277662
20
-60.6066613
11
82.4592708
21
-59.0378579
0
LINE
8
0
10
82.4592708
20
-59.0378579
11
84.0280742
21
-76.9693625
0
LINE
8
0
10
84.0280742
20
-76.9693625
11
66.0965696
21
-78.5381659
0
LINE
8
0
10
66.0965696
20
-78.5381659
11
64.5277662
21
-60.6066613
0
LINE
8
0
10
63.0461185
20
-43.6713514
11
80.9776231
21
-42.102548
0
LINE
8
0
10
80.9776231
20
-42.102548
11
82.5464265
21
-60.0340526
0
LINE
8
0
10
82.5464265
20
-60.0340526
11
64.6149219
21
-61.602856
0
LINE
8
0
10
64.6149219
20
-61.602856
11
63.0461185
21
-43.6713514
0
LINE
8
0
10
83.9409184
20
-75.9731677
11
101.872423
21
-74.4043643
0
LINE
8
0
10
101.872423
20
-74.4043643
11
103.4412264
21
-92.3358689
0
LINE
8
0
10
103.4412264
20
-92.3358689
11
85.5097218
21
-93.9046723
0
LINE
8
0
10
85.5097218
20
-93.9046723
11
83.9409184
21
-75.9731677
0
LINE
8
0
10
82.4592707
20
-59.0378579
11
100.3907753
21
-57.4690545
0
LINE
8
0
10
100.3907753
20
-57.4690545
11
101.9595787
21
-75.4005591
0
LINE
8
0
10
101.9595787
20
-75.4005591
11
84.0280741
21
-76.9693625
0
LINE
8
0
10
84.0280741
20
-76.9693625
11
82.4592707
21
-59.0378579
0
LINE
8
0
10
80.9776231
20
-42.102548
11
98.9091277
21
-40.5337446
0
LINE
8
0
10
98.9091277
20
-40.5337446
11
100.4779311
21
-58.4652492
0
LINE
8
0
10
100.4779311
20
-58.4652492
11
82.5464265
21
-60.0340526
0
LINE
8
0
10
82.5464265
20
-60.0340526
11
80.9776231
21
-42.102548
0
LINE
8
0
10
102.4939291
20
-62.6391945
11
120.4939291
21
-62.6391945
0
LINE
8
0
10
120.4939291
20
-62.6391945
11
120.4939291
21
-80.6391945
0
LINE
8
0
10
120.4939291
20
-80.6391945
11
102.4939291
21
-80.6391945
0
LINE
8
0
10
102.4939291
20
-80.6391945
11
102.4939291
21
-62.6391945
0
LINE
8
0
10
102.493929
20
-45.6391944
11
120.493929
21
-45.6391944
0
LINE
8
0
10
120.493929
20
-45.6391944
11
120.493929
21
-63.6391944
0
LINE
8
0
10
120.493929
20
-63.6391944
11
102.493929
21
-63.6391944
0
LINE
8
0
10
102.493929
20
-63.6391944
11
102.493929
21
-45.6391944
0
LINE
8
0
10
102.493929
20
-28.6391944
11
120.493929
21
-28.6391944
0
LINE
8
0
10
120.493929
20
-28.6391944
11
120.493929
21
-46.6391944
0
LINE
8
0
10
120.493929
20
-46.6391944
11
102.493929
21
-46.6391944
0
LINE
8
0
10
102.493929
20
-46.6391944
11
102.493929
21
-28.6391944
0
LINE
8
0
10
120.4939291
20
-57.6391945
11
138.4939291
21
-57.6391945
0
LINE
8
0
10
138.4939291
20
-57.6391945
11
138.4939291
21
-75.6391945
0
LINE
8
0
10
138.4939291
20
-75.6391945
11
120.4939291
21
-75.6391945
0
LINE
8
0
10
120.4939291
20
-75.6391945
11
120.4939291
21
-57.6391945
0
LINE
8
0
10
120.4939291
20
-40.6391945
11
138.4939291
21
-40.6391945
0
LINE
8
0
10
138.4939291
20
-40.6391945
11
138.4939291
21
-58.6391945
0
LINE
8
0
10
138.4939291
20
-58.6391945
11
120.4939291
21
-58.6391945
0
LINE
8
0
10
120.4939291
20
-58.6391945
11
120.4939291
21
-40.6391945
0
LINE
8
0
10
120.493929
20
-23.6391944
11
138.493929
21
-23.6391944
0
LINE
8
0
10
138.493929
20
-23.6391944
11
138.493929
21
-41.6391944
0
LINE
8
0
10
138.493929
20
-41.6391944
11
120.493929
21
-41.6391944
0
LINE
8
0
10
120.493929
20
-41.6391944
11
120.493929
21
-23.6391944
0
LINE
8
0
10
138.4939291
20
-63.6391945
11
156.4939291
21
-63.6391945
0
LINE
8
0
10
156.4939291
20
-63.6391945
11
156.4939291
21
-81.6391945
0
LINE
8
0
10
156.4939291
20
-81.6391945
11
138.4939291
21
-81.6391945
0
LINE
8
0
10
138.4939291
20
-81.6391945
11
138.4939291
21
-63.6391945
0
LINE
8
0
10
138.4939291
20
-46.6391945
11
156.4939291
21
-46.6391945
0
LINE
8
0
10
156.4939291
20
-46.6391945
11
156.4939291
21
-64.6391945
0
LINE
8
0
10
156.4939291
20
-64.6391945
11
138.4939291
21
-64.6391945
0
LINE
8
0
10
138.4939291
20
-64.6391945
11
138.4939291
21
-46.6391945
0
LINE
8
0
10
138.493929
20
-29.6391945
11
156.493929
21
-29.6391945
0
LINE
8
0
10
156.493929
20
-29.6391945
11
156.493929
21
-47.6391945
0
LINE
8
0
10
156.493929
20
-47.6391945
11
138.493929
21
-47.6391945
0
LINE
8
0
10
138.493929
20
-47.6391945
11
138.493929
21
-29.6391945
0
LINE
8
0
10
156.4939291
20
-65.6391945
11
174.4939291
21
-65.6391945
0
LINE
8
0
10
174.4939291
20
-65.6391945
11
174.4939291
21
-83.6391945
0
LINE
8
0
10
174.4939291
20
-83.6391945
11
156.4939291
21
-83.6391945
0
LINE
8
0
10
156.4939291
20
-83.6391945
11
156.4939291
21
-65.6391945
0
LINE
8
0
10
156.4939291
20
-48.6391944
11
174.4939291
21
-48.6391944
0
LINE
8
0
10
174.4939291
20
-48.6391944
11
174.4939291
21
-66.6391944
0
LINE
8
0
10
174.4939291
20
-66.6391944
11
156.4939291
21
-66.6391944
0
LINE
8
0
10
156.4939291
20
-66.6391944
11
156.4939291
21
-48.6391944
0
LINE
8
0
10
156.493929
20
-31.6391944
11
174.493929
21
-31.6391944
0
LINE
8
0
10
174.493929
20
-31.6391944
11
174.493929
21
-49.6391944
0
LINE
8
0
10
174.493929
20
-49.6391944
11
156.493929
21
-49.6391944
0
LINE
8
0
10
156.493929
20
-49.6391944
11
156.493929
21
-31.6391944
0
LINE
8
0
10
120.4939291
20
-83.6391944
11
138.4939291
21
-83.6391944
0
LINE
8
0
10
138.4939291
20
-83.6391944
11
138.4939291
21
-101.6391944
0
LINE
8
0
10
138.4939291
20
-101.6391944
11
120.4939291
21
-101.6391944
0
LINE
8
0
10
120.4939291
20
-101.6391944
11
120.4939291
21
-83.6391944
0
LINE
8
0
10
143.6762454
20
-84.6042948
11
161.2829022
21
-88.3467052
0
LINE
8
0
10
161.2829022
20
-88.3467052
11
157.5404918
21
-105.953362
0
LINE
8
0
10
157.5404918
20
-105.953362
11
139.933835
21
-102.2109516
0
LINE
8
0
10
139.933835
20
-102.2109516
11
143.6762454
21
-84.6042948
0
LINE
8
0
10
166.1513169
20
-90.36818
11
182.5951351
21
-97.6894396
0
LINE
8
0
10
182.5951351
20
-97.6894396
11
175.2738755
21
-114.1332578
0
LINE
8
0
10
175.2738755
20
-114.1332578
11
158.8300573
21
-106.8119982
0
LINE
8
0
10
158.8300573
20
-106.8119982
11
166.1513169
21
-90.36818
0
LINE
8
0
10
187.1720641
20
-100.2715811
11
201.73437
21
-110.8517156
0
LINE
8
0
10
201.73437
20
-110.8517156
11
191.1542355
21
-125.4140215
0
LINE
8
0
10
191.1542355
20
-125.4140215
11
176.5919296
21
-114.833887
0
LINE
8
0
10
176.5919296
20
-114.833887
11
187.1720641
21
-100.2715811
0
ENDSEC
0
EOF