<svg width="155.923mm" height="101.775mm" viewBox="0 0 155.923 101.775" xmlns="http://www.w3.org/2000/svg"><g id="svgGroup" stroke-linecap="round" fill-rule="evenodd" font-size="9pt" stroke="#000" stroke-width="0.25mm" fill="none" style="stroke:#000;stroke-width:0.25mm;fill:none"><path d="M 38.129 52.334 L 56.061 50.765 L 57.629 68.697 L 39.698 70.265 L 38.129 52.334 Z M 17.234 20.032 L 35.166 18.463 L 36.735 36.395 L 18.803 37.964 L 17.234 20.032 Z M 35.166 18.463 L 53.097 16.895 L 54.666 34.826 L 36.735 36.395 L 35.166 18.463 Z M 36.647 35.399 L 54.579 33.83 L 56.148 51.761 L 38.216 53.33 L 36.647 35.399 Z M 0 29.571 L 17.932 28.002 L 19.5 45.933 L 1.569 47.502 L 0 29.571 Z M 20.198 53.903 L 38.129 52.334 L 39.698 70.265 L 21.766 71.834 L 20.198 53.903 Z M 18.716 36.967 L 36.647 35.399 L 38.216 53.33 L 20.285 54.899 L 18.716 36.967 Z M 56.682 39 L 74.682 39 L 74.682 57 L 56.682 57 L 56.682 39 Z M 56.682 22 L 74.682 22 L 74.682 40 L 56.682 40 L 56.682 22 Z M 56.682 5 L 74.682 5 L 74.682 23 L 56.682 23 L 56.682 5 Z M 74.682 34 L 92.682 34 L 92.682 52 L 74.682 52 L 74.682 34 Z M 74.682 17 L 92.682 17 L 92.682 35 L 74.682 35 L 74.682 17 Z M 74.682 0 L 92.682 0 L 92.682 18 L 74.682 18 L 74.682 0 Z M 92.682 40 L 110.682 40 L 110.682 58 L 92.682 58 L 92.682 40 Z M 92.682 23 L 110.682 23 L 110.682 41 L 92.682 41 L 92.682 23 Z M 92.682 6 L 110.682 6 L 110.682 24 L 92.682 24 L 92.682 6 Z M 110.682 42 L 128.682 42 L 128.682 60 L 110.682 60 L 110.682 42 Z M 110.682 25 L 128.682 25 L 128.682 43 L 110.682 43 L 110.682 25 Z M 110.682 8 L 128.682 8 L 128.682 26 L 110.682 26 L 110.682 8 Z M 74.682 60 L 92.682 60 L 92.682 78 L 74.682 78 L 74.682 60 Z M 97.864 60.965 L 115.471 64.708 L 111.729 82.314 L 94.122 78.572 L 97.864 60.965 Z M 141.36 76.632 L 155.923 87.213 L 145.342 101.775 L 130.78 91.195 L 141.36 76.632 Z M 120.339 66.729 L 136.783 74.05 L 129.462 90.494 L 113.018 83.173 L 120.339 66.729 Z" vector-effect="non-scaling-stroke"/></g></svg>