%TF.GenerationSoftware,KiCad,Pcbnew,7.0.10*%
%TF.CreationDate,2024-02-18T22:51:37+03:00*%
%TF.ProjectId,jcuken_1,6a63756b-656e-45f3-912e-6b696361645f,0.1*%
%TF.SameCoordinates,Original*%
%TF.FileFunction,Copper,L1,Top*%
%TF.FilePolarity,Positive*%
%FSLAX46Y46*%
G04 Gerber Fmt 4.6, Leading zero omitted, Abs format (unit mm)*
G04 Created by KiCad (PCBNEW 7.0.10) date 2024-02-18 22:51:37*
%MOMM*%
%LPD*%
G01*
G04 APERTURE LIST*
G04 Aperture macros list*
%AMHorizOval*
0 Thick line with rounded ends*
0 $1 width*
0 $2 $3 position (X,Y) of the first rounded end (center of the circle)*
0 $4 $5 position (X,Y) of the second rounded end (center of the circle)*
0 Add line between two ends*
20,1,$1,$2,$3,$4,$5,0*
0 Add two circle primitives to create the rounded ends*
1,1,$1,$2,$3*
1,1,$1,$4,$5*%
%AMRotRect*
0 Rectangle, with rotation*
0 The origin of the aperture is its center*
0 $1 length*
0 $2 width*
0 $3 Rotation angle, in degrees counterclockwise*
0 Add horizontal line*
21,1,$1,$2,0,0,$3*%
G04 Aperture macros list end*
%TA.AperFunction,ComponentPad*%
%ADD10C,2.000000*%
%TD*%
%TA.AperFunction,SMDPad,CuDef*%
%ADD11R,2.600000X2.600000*%
%TD*%
%TA.AperFunction,ComponentPad*%
%ADD12RotRect,1.778000X1.778000X5.000000*%
%TD*%
%TA.AperFunction,SMDPad,CuDef*%
%ADD13RotRect,0.900000X1.200000X5.000000*%
%TD*%
%TA.AperFunction,ComponentPad*%
%ADD14C,1.905000*%
%TD*%
%TA.AperFunction,ComponentPad*%
%ADD15RotRect,1.778000X1.778000X324.000000*%
%TD*%
%TA.AperFunction,SMDPad,CuDef*%
%ADD16RotRect,0.900000X1.200000X324.000000*%
%TD*%
%TA.AperFunction,ComponentPad*%
%ADD17R,1.778000X1.778000*%
%TD*%
%TA.AperFunction,SMDPad,CuDef*%
%ADD18R,0.900000X1.200000*%
%TD*%
%TA.AperFunction,SMDPad,CuDef*%
%ADD19RotRect,2.600000X2.600000X336.000000*%
%TD*%
%TA.AperFunction,ComponentPad*%
%ADD20C,0.700000*%
%TD*%
%TA.AperFunction,ComponentPad*%
%ADD21C,4.400000*%
%TD*%
%TA.AperFunction,SMDPad,CuDef*%
%ADD22RotRect,2.600000X2.600000X5.000000*%
%TD*%
%TA.AperFunction,ComponentPad*%
%ADD23RotRect,1.778000X1.778000X348.000000*%
%TD*%
%TA.AperFunction,SMDPad,CuDef*%
%ADD24RotRect,0.900000X1.200000X348.000000*%
%TD*%
%TA.AperFunction,ComponentPad*%
%ADD25HorizOval,1.600000X-0.846765X-0.074082X0.846765X0.074082X0*%
%TD*%
%TA.AperFunction,ComponentPad*%
%ADD26HorizOval,1.600000X-0.298858X-0.026147X0.298858X0.026147X0*%
%TD*%
%TA.AperFunction,ComponentPad*%
%ADD27C,0.800000*%
%TD*%
%TA.AperFunction,SMDPad,CuDef*%
%ADD28R,0.600000X1.200000*%
%TD*%
%TA.AperFunction,ComponentPad*%
%ADD29C,1.700000*%
%TD*%
%TA.AperFunction,SMDPad,CuDef*%
%ADD30RotRect,2.600000X2.600000X324.000000*%
%TD*%
%TA.AperFunction,SMDPad,CuDef*%
%ADD31RotRect,2.600000X2.600000X348.000000*%
%TD*%
%TA.AperFunction,ComponentPad*%
%ADD32RotRect,1.778000X1.778000X336.000000*%
%TD*%
%TA.AperFunction,SMDPad,CuDef*%
%ADD33RotRect,0.900000X1.200000X336.000000*%
%TD*%
%TA.AperFunction,ViaPad*%
%ADD34C,0.800000*%
%TD*%
%TA.AperFunction,Conductor*%
%ADD35C,0.250000*%
%TD*%
G04 APERTURE END LIST*
D10*
%TO.P,B1,1*%
%TO.N,RST*%
X201050073Y-102011086D03*
%TO.P,B1,2*%
%TO.N,GND*%
X195791463Y-98190482D03*
%TD*%
D11*
%TO.P,S16,1*%
%TO.N,P8*%
X150768929Y-32689195D03*
%TO.P,S16,2*%
%TO.N,index_top*%
X139218929Y-34889195D03*
%TD*%
D12*
%TO.P,D3,1*%
%TO.N,P3*%
X70918197Y-74101048D03*
D13*
X73069978Y-73912792D03*
%TO.P,D3,2*%
%TO.N,outer_home*%
X76357420Y-73625178D03*
D14*
X78509201Y-73436922D03*
%TD*%
D15*
%TO.P,D23,1*%
%TO.N,P5*%
X183141869Y-114648424D03*
D16*
X184889346Y-115918040D03*
%TO.P,D23,2*%
%TO.N,far_thumb*%
X187559102Y-117857732D03*
D14*
X189306579Y-119127348D03*
%TD*%
D17*
%TO.P,D8,1*%
%TO.N,P4*%
X107683929Y-76639195D03*
D18*
X109843929Y-76639195D03*
%TO.P,D8,2*%
%TO.N,ring_bottom*%
X113143929Y-76639195D03*
D14*
X115303929Y-76639195D03*
%TD*%
D17*
%TO.P,D18,1*%
%TO.N,P3*%
X161683929Y-62639194D03*
D18*
X163843929Y-62639194D03*
%TO.P,D18,2*%
%TO.N,inner_home*%
X167143929Y-62639194D03*
D14*
X169303929Y-62639194D03*
%TD*%
D19*
%TO.P,S22,1*%
%TO.N,P8*%
X176124540Y-98147186D03*
%TO.P,S22,2*%
%TO.N,one_more_thumb*%
X164678270Y-95459178D03*
%TD*%
D12*
%TO.P,D2,1*%
%TO.N,P4*%
X72399845Y-91036358D03*
D13*
X74551626Y-90848102D03*
%TO.P,D2,2*%
%TO.N,outer_bottom*%
X77839068Y-90560488D03*
D14*
X79990849Y-90372232D03*
%TD*%
D20*
%TO.P,_1,1*%
%TO.N,N/C*%
X57203387Y-48599331D03*
X57583135Y-47394925D03*
X57786509Y-49719497D03*
X58703301Y-46811803D03*
D21*
X58847108Y-48455524D03*
D20*
X58990915Y-50099245D03*
X59907707Y-47191551D03*
X60111081Y-49516123D03*
X60490829Y-48311717D03*
%TD*%
D11*
%TO.P,S18,1*%
%TO.N,P9*%
X168768929Y-51689194D03*
%TO.P,S18,2*%
%TO.N,inner_home*%
X157218929Y-53889194D03*
%TD*%
D22*
%TO.P,S7,1*%
%TO.N,P21*%
X93471738Y-44071105D03*
%TO.P,S7,2*%
%TO.N,pinky_top*%
X82157432Y-47269383D03*
%TD*%
D20*
%TO.P,_3,1*%
%TO.N,N/C*%
X141443929Y-26039195D03*
X141927203Y-24872469D03*
X141927203Y-27205921D03*
X143093929Y-24389195D03*
D21*
X143093929Y-26039195D03*
D20*
X143093929Y-27689195D03*
X144260655Y-24872469D03*
X144260655Y-27205921D03*
X144743929Y-26039195D03*
%TD*%
D23*
%TO.P,D21,1*%
%TO.N,P5*%
X145842068Y-99377422D03*
D24*
X147954866Y-99826512D03*
%TO.P,D21,2*%
%TO.N,home_thumb*%
X151182754Y-100512620D03*
D14*
X153295552Y-100961710D03*
%TD*%
D11*
%TO.P,S14,1*%
%TO.N,P8*%
X150768929Y-66689195D03*
%TO.P,S14,2*%
%TO.N,index_bottom*%
X139218929Y-68889195D03*
%TD*%
D17*
%TO.P,D11,1*%
%TO.N,P4*%
X125683929Y-71639195D03*
D18*
X127843929Y-71639195D03*
%TO.P,D11,2*%
%TO.N,middle_bottom*%
X131143929Y-71639195D03*
D14*
X133303929Y-71639195D03*
%TD*%
D12*
%TO.P,D1,1*%
%TO.N,P2*%
X52202291Y-66704099D03*
D13*
X54354072Y-66515843D03*
%TO.P,D1,2*%
%TO.N,far_outer_top*%
X57641514Y-66228229D03*
D14*
X59793295Y-66039973D03*
%TD*%
D17*
%TO.P,D12,1*%
%TO.N,P3*%
X125683929Y-54639195D03*
D18*
X127843929Y-54639195D03*
%TO.P,D12,2*%
%TO.N,middle_home*%
X131143929Y-54639195D03*
D14*
X133303929Y-54639195D03*
%TD*%
D17*
%TO.P,D15,1*%
%TO.N,P3*%
X143683929Y-60639195D03*
D18*
X145843929Y-60639195D03*
%TO.P,D15,2*%
%TO.N,index_home*%
X149143929Y-60639195D03*
D14*
X151303929Y-60639195D03*
%TD*%
D11*
%TO.P,S9,1*%
%TO.N,P6*%
X114768929Y-48689194D03*
%TO.P,S9,2*%
%TO.N,ring_home*%
X103218929Y-50889194D03*
%TD*%
%TO.P,S19,1*%
%TO.N,P9*%
X168768929Y-34689194D03*
%TO.P,S19,2*%
%TO.N,inner_top*%
X157218929Y-36889194D03*
%TD*%
D17*
%TO.P,D17,1*%
%TO.N,P4*%
X161683929Y-79639195D03*
D18*
X163843929Y-79639195D03*
%TO.P,D17,2*%
%TO.N,inner_bottom*%
X167143929Y-79639195D03*
D14*
X169303929Y-79639195D03*
%TD*%
D22*
%TO.P,S1,1*%
%TO.N,P19*%
X58305975Y-55178269D03*
%TO.P,S1,2*%
%TO.N,far_outer_top*%
X46991669Y-58376547D03*
%TD*%
D25*
%TO.P,TRRS1,1*%
%TO.N,P0*%
X189383920Y-88993624D03*
X189784836Y-93576119D03*
D26*
%TO.P,TRRS1,2*%
%TO.N,GND*%
X193916605Y-88597065D03*
X194317522Y-93179561D03*
%TO.P,TRRS1,3*%
%TO.N,VCC*%
X196905190Y-88335598D03*
X197306106Y-92918093D03*
%TD*%
D27*
%TO.P,MCU1,1*%
%TO.N,RAW*%
X188893929Y-56939195D03*
D28*
X190073929Y-56939195D03*
D29*
%TO.N,MCU1_1*%
X193113929Y-56939195D03*
D27*
%TO.P,MCU1,2*%
%TO.N,GND*%
X188893929Y-59479195D03*
D28*
X190073929Y-59479195D03*
D29*
%TO.N,MCU1_2*%
X193113929Y-59479195D03*
D27*
%TO.P,MCU1,3*%
%TO.N,RST*%
X188893929Y-62019195D03*
D28*
X190073929Y-62019195D03*
D29*
%TO.N,MCU1_3*%
X193113929Y-62019195D03*
D27*
%TO.P,MCU1,4*%
%TO.N,VCC*%
X188893929Y-64559195D03*
D28*
X190073929Y-64559195D03*
D29*
%TO.N,MCU1_4*%
X193113929Y-64559195D03*
D27*
%TO.P,MCU1,5*%
%TO.N,P21*%
X188893929Y-67099195D03*
D28*
X190073929Y-67099195D03*
D29*
%TO.N,MCU1_5*%
X193113929Y-67099195D03*
D27*
%TO.P,MCU1,6*%
%TO.N,P20*%
X188893929Y-69639195D03*
D28*
X190073929Y-69639195D03*
D29*
%TO.N,MCU1_6*%
X193113929Y-69639195D03*
D27*
%TO.P,MCU1,7*%
%TO.N,P19*%
X188893929Y-72179195D03*
D28*
X190073929Y-72179195D03*
D29*
%TO.N,MCU1_7*%
X193113929Y-72179195D03*
D27*
%TO.P,MCU1,8*%
%TO.N,P18*%
X188893929Y-74719195D03*
D28*
X190073929Y-74719195D03*
D29*
%TO.N,MCU1_8*%
X193113929Y-74719195D03*
D27*
%TO.P,MCU1,9*%
%TO.N,P15*%
X188893929Y-77259195D03*
D28*
X190073929Y-77259195D03*
D29*
%TO.N,MCU1_9*%
X193113929Y-77259195D03*
D27*
%TO.P,MCU1,10*%
%TO.N,P14*%
X188893929Y-79799195D03*
D28*
X190073929Y-79799195D03*
D29*
%TO.N,MCU1_10*%
X193113929Y-79799195D03*
D27*
%TO.P,MCU1,11*%
%TO.N,P16*%
X188893929Y-82339195D03*
D28*
X190073929Y-82339195D03*
D29*
%TO.N,MCU1_11*%
X193113929Y-82339195D03*
D27*
%TO.P,MCU1,12*%
%TO.N,P10*%
X188893929Y-84879195D03*
D28*
X190073929Y-84879195D03*
D29*
%TO.N,MCU1_12*%
X193113929Y-84879195D03*
%TO.P,MCU1,13*%
%TO.N,MCU1_13*%
X177873929Y-84879195D03*
D28*
X180013929Y-84879195D03*
%TO.N,MCU1_12*%
X190973929Y-84879195D03*
D29*
%TO.P,MCU1,14*%
%TO.N,MCU1_14*%
X177873929Y-82339195D03*
D28*
X180013929Y-82339195D03*
%TO.N,MCU1_11*%
X190973929Y-82339195D03*
D29*
%TO.P,MCU1,15*%
%TO.N,MCU1_15*%
X177873929Y-79799195D03*
D28*
X180013929Y-79799195D03*
%TO.N,MCU1_10*%
X190973929Y-79799195D03*
D29*
%TO.P,MCU1,16*%
%TO.N,MCU1_16*%
X177873929Y-77259195D03*
D28*
X180013929Y-77259195D03*
%TO.N,MCU1_9*%
X190973929Y-77259195D03*
D29*
%TO.P,MCU1,17*%
%TO.N,MCU1_17*%
X177873929Y-74719195D03*
D28*
X180013929Y-74719195D03*
%TO.N,MCU1_8*%
X190973929Y-74719195D03*
D29*
%TO.P,MCU1,18*%
%TO.N,MCU1_18*%
X177873929Y-72179195D03*
D28*
X180013929Y-72179195D03*
%TO.N,MCU1_7*%
X190973929Y-72179195D03*
D29*
%TO.P,MCU1,19*%
%TO.N,MCU1_19*%
X177873929Y-69639195D03*
D28*
X180013929Y-69639195D03*
%TO.N,MCU1_6*%
X190973929Y-69639195D03*
D29*
%TO.P,MCU1,20*%
%TO.N,MCU1_20*%
X177873929Y-67099195D03*
D28*
X180013929Y-67099195D03*
%TO.N,MCU1_5*%
X190973929Y-67099195D03*
D29*
%TO.P,MCU1,21*%
%TO.N,MCU1_21*%
X177873929Y-64559195D03*
D28*
X180013929Y-64559195D03*
%TO.N,MCU1_4*%
X190973929Y-64559195D03*
D29*
%TO.P,MCU1,22*%
%TO.N,MCU1_22*%
X177873929Y-62019195D03*
D28*
X180013929Y-62019195D03*
%TO.N,MCU1_3*%
X190973929Y-62019195D03*
D29*
%TO.P,MCU1,23*%
%TO.N,MCU1_23*%
X177873929Y-59479195D03*
D28*
X180013929Y-59479195D03*
%TO.N,MCU1_2*%
X190973929Y-59479195D03*
D29*
%TO.P,MCU1,24*%
%TO.N,MCU1_24*%
X177873929Y-56939195D03*
D28*
X180013929Y-56939195D03*
%TO.N,MCU1_1*%
X190973929Y-56939195D03*
%TO.P,MCU1,113*%
%TO.N,P9*%
X180913929Y-84879195D03*
D27*
X182093929Y-84879195D03*
D28*
%TO.P,MCU1,114*%
%TO.N,P8*%
X180913929Y-82339195D03*
D27*
X182093929Y-82339195D03*
D28*
%TO.P,MCU1,115*%
%TO.N,P7*%
X180913929Y-79799195D03*
D27*
X182093929Y-79799195D03*
D28*
%TO.P,MCU1,116*%
%TO.N,P6*%
X180913929Y-77259195D03*
D27*
X182093929Y-77259195D03*
D28*
%TO.P,MCU1,117*%
%TO.N,P5*%
X180913929Y-74719195D03*
D27*
X182093929Y-74719195D03*
D28*
%TO.P,MCU1,118*%
%TO.N,P4*%
X180913929Y-72179195D03*
D27*
X182093929Y-72179195D03*
D28*
%TO.P,MCU1,119*%
%TO.N,P3*%
X180913929Y-69639195D03*
D27*
X182093929Y-69639195D03*
D28*
%TO.P,MCU1,120*%
%TO.N,P2*%
X180913929Y-67099195D03*
D27*
X182093929Y-67099195D03*
D28*
%TO.P,MCU1,121*%
%TO.N,N/C*%
X180913929Y-64559195D03*
D27*
X182093929Y-64559195D03*
D28*
%TO.P,MCU1,122*%
X180913929Y-62019195D03*
D27*
X182093929Y-62019195D03*
D28*
%TO.P,MCU1,123*%
%TO.N,P0*%
X180913929Y-59479195D03*
D27*
X182093929Y-59479195D03*
D28*
%TO.P,MCU1,124*%
%TO.N,P1*%
X180913929Y-56939195D03*
D27*
X182093929Y-56939195D03*
%TD*%
D17*
%TO.P,D19,1*%
%TO.N,P2*%
X161683929Y-45639194D03*
D18*
X163843929Y-45639194D03*
%TO.P,D19,2*%
%TO.N,inner_top*%
X167143929Y-45639194D03*
D14*
X169303929Y-45639194D03*
%TD*%
D17*
%TO.P,D14,1*%
%TO.N,P4*%
X143683929Y-77639195D03*
D18*
X145843929Y-77639195D03*
%TO.P,D14,2*%
%TO.N,index_bottom*%
X149143929Y-77639195D03*
D14*
X151303929Y-77639195D03*
%TD*%
D12*
%TO.P,D5,1*%
%TO.N,P4*%
X90331349Y-89467555D03*
D13*
X92483130Y-89279299D03*
%TO.P,D5,2*%
%TO.N,pinky_bottom*%
X95770572Y-88991685D03*
D14*
X97922353Y-88803429D03*
%TD*%
D12*
%TO.P,D4,1*%
%TO.N,P2*%
X69436549Y-57165739D03*
D13*
X71588330Y-56977483D03*
%TO.P,D4,2*%
%TO.N,outer_top*%
X74875772Y-56689869D03*
D14*
X77027553Y-56501613D03*
%TD*%
D11*
%TO.P,S8,1*%
%TO.N,P6*%
X114768929Y-65689195D03*
%TO.P,S8,2*%
%TO.N,ring_bottom*%
X103218929Y-67889195D03*
%TD*%
D22*
%TO.P,S6,1*%
%TO.N,P21*%
X94953386Y-61006415D03*
%TO.P,S6,2*%
%TO.N,pinky_home*%
X83639080Y-64204693D03*
%TD*%
D20*
%TO.P,_4,1*%
%TO.N,N/C*%
X118843929Y-58139195D03*
X119327203Y-56972469D03*
X119327203Y-59305921D03*
X120493929Y-56489195D03*
D21*
X120493929Y-58139195D03*
D20*
X120493929Y-59789195D03*
X121660655Y-56972469D03*
X121660655Y-59305921D03*
X122143929Y-58139195D03*
%TD*%
D11*
%TO.P,S20,1*%
%TO.N,P6*%
X132768929Y-86689194D03*
%TO.P,S20,2*%
%TO.N,near_thumb*%
X121218929Y-88889194D03*
%TD*%
%TO.P,S17,1*%
%TO.N,P9*%
X168768929Y-68689195D03*
%TO.P,S17,2*%
%TO.N,inner_bottom*%
X157218929Y-70889195D03*
%TD*%
D17*
%TO.P,D16,1*%
%TO.N,P2*%
X143683929Y-43639195D03*
D18*
X145843929Y-43639195D03*
%TO.P,D16,2*%
%TO.N,index_top*%
X149143929Y-43639195D03*
D14*
X151303929Y-43639195D03*
%TD*%
D20*
%TO.P,_7,1*%
%TO.N,N/C*%
X172843929Y-49139194D03*
X173327203Y-47972468D03*
X173327203Y-50305920D03*
X174493929Y-47489194D03*
D21*
X174493929Y-49139194D03*
D20*
X174493929Y-50789194D03*
X175660655Y-47972468D03*
X175660655Y-50305920D03*
X176143929Y-49139194D03*
%TD*%
D30*
%TO.P,S23,1*%
%TO.N,P9*%
X195310003Y-109954147D03*
%TO.P,S23,2*%
%TO.N,far_thumb*%
X184672729Y-104945064D03*
%TD*%
D22*
%TO.P,S4,1*%
%TO.N,P20*%
X75540234Y-45639908D03*
%TO.P,S4,2*%
%TO.N,outer_top*%
X64225928Y-48838186D03*
%TD*%
D17*
%TO.P,D13,1*%
%TO.N,P2*%
X125683929Y-37639194D03*
D18*
X127843929Y-37639194D03*
%TO.P,D13,2*%
%TO.N,middle_top*%
X131143929Y-37639194D03*
D14*
X133303929Y-37639194D03*
%TD*%
D12*
%TO.P,D7,1*%
%TO.N,P2*%
X87368054Y-55596935D03*
D13*
X89519835Y-55408679D03*
%TO.P,D7,2*%
%TO.N,pinky_top*%
X92807277Y-55121065D03*
D14*
X94959058Y-54932809D03*
%TD*%
D22*
%TO.P,S3,1*%
%TO.N,P20*%
X77021881Y-62575218D03*
%TO.P,S3,2*%
%TO.N,outer_home*%
X65707575Y-65773496D03*
%TD*%
D11*
%TO.P,S10,1*%
%TO.N,P6*%
X114768929Y-31689194D03*
%TO.P,S10,2*%
%TO.N,ring_top*%
X103218929Y-33889194D03*
%TD*%
D12*
%TO.P,D6,1*%
%TO.N,P3*%
X88849701Y-72532245D03*
D13*
X91001482Y-72343989D03*
%TO.P,D6,2*%
%TO.N,pinky_home*%
X94288924Y-72056375D03*
D14*
X96440705Y-71868119D03*
%TD*%
D11*
%TO.P,S11,1*%
%TO.N,P7*%
X132768929Y-60689195D03*
%TO.P,S11,2*%
%TO.N,middle_bottom*%
X121218929Y-62889195D03*
%TD*%
D20*
%TO.P,_5,1*%
%TO.N,N/C*%
X114343929Y-92639194D03*
X114827203Y-91472468D03*
X114827203Y-93805920D03*
X115993929Y-90989194D03*
D21*
X115993929Y-92639194D03*
D20*
X115993929Y-94289194D03*
X117160655Y-91472468D03*
X117160655Y-93805920D03*
X117643929Y-92639194D03*
%TD*%
%TO.P,_2,1*%
%TO.N,N/C*%
X60667218Y-87043731D03*
X61046966Y-85839325D03*
X61250340Y-88163897D03*
X62167132Y-85256203D03*
D21*
X62310939Y-86899924D03*
D20*
X62454746Y-88543645D03*
X63371538Y-85635951D03*
X63574912Y-87960523D03*
X63954660Y-86756117D03*
%TD*%
D22*
%TO.P,S5,1*%
%TO.N,P21*%
X96435033Y-77941724D03*
%TO.P,S5,2*%
%TO.N,pinky_bottom*%
X85120727Y-81140002D03*
%TD*%
%TO.P,S2,1*%
%TO.N,P20*%
X78503529Y-79510528D03*
%TO.P,S2,2*%
%TO.N,outer_bottom*%
X67189223Y-82708806D03*
%TD*%
D31*
%TO.P,S21,1*%
%TO.N,P7*%
X155048877Y-90139761D03*
%TO.P,S21,2*%
%TO.N,home_thumb*%
X143293866Y-89890305D03*
%TD*%
D17*
%TO.P,D9,1*%
%TO.N,P3*%
X107683929Y-59639194D03*
D18*
X109843929Y-59639194D03*
%TO.P,D9,2*%
%TO.N,ring_home*%
X113143929Y-59639194D03*
D14*
X115303929Y-59639194D03*
%TD*%
D20*
%TO.P,_6,1*%
%TO.N,N/C*%
X176693433Y-119542888D03*
X177770194Y-118883049D03*
X176398626Y-120770851D03*
X178998157Y-119177856D03*
D21*
X178028311Y-120512734D03*
D20*
X177058465Y-121847612D03*
X179657996Y-120254617D03*
X178286428Y-122142419D03*
X179363189Y-121482580D03*
%TD*%
D17*
%TO.P,D20,1*%
%TO.N,P5*%
X125683929Y-97639194D03*
D18*
X127843929Y-97639194D03*
%TO.P,D20,2*%
%TO.N,near_thumb*%
X131143929Y-97639194D03*
D14*
X133303929Y-97639194D03*
%TD*%
D11*
%TO.P,S13,1*%
%TO.N,P7*%
X132768929Y-26689194D03*
%TO.P,S13,2*%
%TO.N,middle_top*%
X121218929Y-28889194D03*
%TD*%
D32*
%TO.P,D22,1*%
%TO.N,P5*%
X165198305Y-105268779D03*
D33*
X167171563Y-106147331D03*
%TO.P,D22,2*%
%TO.N,one_more_thumb*%
X170186263Y-107489561D03*
D14*
X172159521Y-108368113D03*
%TD*%
D17*
%TO.P,D10,1*%
%TO.N,P2*%
X107683929Y-42639194D03*
D18*
X109843929Y-42639194D03*
%TO.P,D10,2*%
%TO.N,ring_top*%
X113143929Y-42639194D03*
D14*
X115303929Y-42639194D03*
%TD*%
D11*
%TO.P,S15,1*%
%TO.N,P8*%
X150768929Y-49689195D03*
%TO.P,S15,2*%
%TO.N,index_home*%
X139218929Y-51889195D03*
%TD*%
%TO.P,S12,1*%
%TO.N,P7*%
X132768929Y-43689195D03*
%TO.P,S12,2*%
%TO.N,middle_home*%
X121218929Y-45889195D03*
%TD*%
D34*
%TO.N,P19*%
X58100000Y-52700000D03*
X186000000Y-100000000D03*
%TO.N,P20*%
X77000000Y-60100000D03*
X75500000Y-43100000D03*
X78500000Y-77200000D03*
X185000000Y-99000000D03*
%TO.N,P21*%
X96500000Y-75600000D03*
X94800000Y-58900000D03*
X93200000Y-41600000D03*
X184000000Y-98000000D03*
%TO.N,P6*%
X114800000Y-29100000D03*
X183000000Y-97000000D03*
X132800000Y-84300000D03*
X114700000Y-46300000D03*
X114800000Y-63200000D03*
%TO.N,P7*%
X132800000Y-41200000D03*
X155700000Y-87500000D03*
X132900000Y-24300000D03*
X182000000Y-96200000D03*
X132800000Y-58200000D03*
%TO.N,P8*%
X150800000Y-30000000D03*
X177400000Y-95800000D03*
X150900000Y-64200000D03*
X150900000Y-47200000D03*
X180100000Y-93100000D03*
%TO.N,P9*%
X168700000Y-66100000D03*
X197000000Y-107800000D03*
X168800000Y-49100000D03*
X168700000Y-32100000D03*
%TO.N,GND*%
X196000000Y-59000000D03*
%TO.N,P0*%
X185000000Y-88000000D03*
%TD*%
D35*
%TO.N,P19*%
X58305975Y-55178269D02*
X58305975Y-52905975D01*
X190074000Y-72179000D02*
X188894000Y-72179000D01*
X186900000Y-74173124D02*
X188893929Y-72179195D01*
X186000000Y-98636396D02*
X186900000Y-97736396D01*
X58305975Y-52905975D02*
X58100000Y-52700000D01*
X186900000Y-97736396D02*
X186900000Y-74173124D01*
X186000000Y-100000000D02*
X186000000Y-98636396D01*
%TO.N,far_outer_top*%
X46991669Y-58376547D02*
X46991669Y-62491669D01*
X59793295Y-66039973D02*
X57829770Y-66039973D01*
X46991669Y-62491669D02*
X49000000Y-64500000D01*
X49000000Y-64500000D02*
X58253322Y-64500000D01*
X57829770Y-66039973D02*
X57641514Y-66228229D01*
X58253322Y-64500000D02*
X59793295Y-66039973D01*
%TO.N,P20*%
X75500000Y-43100000D02*
X75540234Y-43140234D01*
X77021881Y-62575218D02*
X77000000Y-60100000D01*
X185000000Y-99000000D02*
X185000000Y-98000000D01*
X78600000Y-77200000D02*
X78500000Y-77100000D01*
X78500000Y-77200000D02*
X78600000Y-77200000D01*
X185000000Y-98000000D02*
X186450000Y-96550000D01*
X190074000Y-69639000D02*
X188894000Y-69639000D01*
X78500000Y-77100000D02*
X78500000Y-77200000D01*
X75540234Y-43140234D02*
X75540234Y-45639908D01*
X186450000Y-72083124D02*
X188893929Y-69639195D01*
X78503529Y-79510528D02*
X78503529Y-77400000D01*
X186450000Y-96550000D02*
X186450000Y-72083124D01*
X78503529Y-77103529D02*
X78500000Y-77100000D01*
X77000000Y-60100000D02*
X77021881Y-60121881D01*
%TO.N,outer_bottom*%
X79990849Y-90372232D02*
X78027324Y-90372232D01*
X78027324Y-90372232D02*
X77839068Y-90560488D01*
X68300000Y-89000000D02*
X78618617Y-89000000D01*
X78618617Y-89000000D02*
X79990849Y-90372232D01*
X67189223Y-82708806D02*
X67189223Y-87889223D01*
X67189223Y-87889223D02*
X68300000Y-89000000D01*
%TO.N,outer_home*%
X65707575Y-71307575D02*
X66200000Y-71800000D01*
X76545676Y-73436922D02*
X76357420Y-73625178D01*
X76872279Y-71800000D02*
X78509201Y-73436922D01*
X65707575Y-65773496D02*
X65707575Y-71307575D01*
X66200000Y-71800000D02*
X76872279Y-71800000D01*
X78509201Y-73436922D02*
X76545676Y-73436922D01*
%TO.N,outer_top*%
X75064028Y-56501613D02*
X74875772Y-56689869D01*
X75325940Y-54800000D02*
X77027553Y-56501613D01*
X65300000Y-54800000D02*
X75325940Y-54800000D01*
X64225928Y-48838186D02*
X64225928Y-53725928D01*
X64225928Y-53725928D02*
X65300000Y-54800000D01*
X77027553Y-56501613D02*
X75064028Y-56501613D01*
%TO.N,P21*%
X186000000Y-96000000D02*
X186000000Y-69993124D01*
X186000000Y-69993124D02*
X188893929Y-67099195D01*
X94800000Y-60853029D02*
X94953386Y-61006415D01*
X94800000Y-58900000D02*
X94800000Y-60853029D01*
X190074000Y-67099000D02*
X188894000Y-67099000D01*
X96500000Y-77876757D02*
X96435033Y-77941724D01*
X93200000Y-41600000D02*
X93471738Y-41871738D01*
X93471738Y-41871738D02*
X93471738Y-44071105D01*
X184000000Y-98000000D02*
X186000000Y-96000000D01*
X96500000Y-75600000D02*
X96500000Y-77876757D01*
%TO.N,pinky_bottom*%
X97922353Y-88803429D02*
X95958828Y-88803429D01*
X95958828Y-88803429D02*
X95770572Y-88991685D01*
X94178887Y-87400000D02*
X95770572Y-88991685D01*
X87700000Y-87400000D02*
X94178887Y-87400000D01*
X85120727Y-81140002D02*
X85120727Y-84820727D01*
X85120727Y-84820727D02*
X87700000Y-87400000D01*
%TO.N,pinky_home*%
X85300000Y-70300000D02*
X94872586Y-70300000D01*
X83639080Y-64204693D02*
X83639080Y-68639080D01*
X94872586Y-70300000D02*
X96440705Y-71868119D01*
X96440705Y-71868119D02*
X94477180Y-71868119D01*
X83639080Y-68639080D02*
X85300000Y-70300000D01*
X94477180Y-71868119D02*
X94288924Y-72056375D01*
%TO.N,pinky_top*%
X92995533Y-54932809D02*
X92807277Y-55121065D01*
X82157432Y-47269383D02*
X82157432Y-50957432D01*
X91286212Y-53600000D02*
X92807277Y-55121065D01*
X94959058Y-54932809D02*
X92995533Y-54932809D01*
X82157432Y-50957432D02*
X84800000Y-53600000D01*
X84800000Y-53600000D02*
X91286212Y-53600000D01*
%TO.N,P6*%
X183718929Y-78884195D02*
X182093929Y-77259195D01*
X114800000Y-63200000D02*
X114768929Y-63231071D01*
X114768929Y-29131071D02*
X114768929Y-31689194D01*
X132800000Y-84400000D02*
X132800000Y-84300000D01*
X132768929Y-86689194D02*
X132768929Y-84431071D01*
X114700000Y-46300000D02*
X114700000Y-48620265D01*
X132800000Y-84300000D02*
X132900000Y-84300000D01*
X132900000Y-84300000D02*
X132800000Y-84400000D01*
X183718929Y-96281071D02*
X183718929Y-78884195D01*
X114700000Y-48620265D02*
X114768929Y-48689194D01*
X180914000Y-77259000D02*
X182094000Y-77259000D01*
X114800000Y-29100000D02*
X114768929Y-29131071D01*
X114768929Y-63231071D02*
X114768929Y-65689195D01*
X183000000Y-97000000D02*
X183718929Y-96281071D01*
X132768929Y-84431071D02*
X132800000Y-84400000D01*
%TO.N,ring_bottom*%
X105100000Y-74600000D02*
X113264734Y-74600000D01*
X115303929Y-76639195D02*
X113143929Y-76639195D01*
X103218929Y-67889195D02*
X103218929Y-72718929D01*
X113264734Y-74600000D02*
X115303929Y-76639195D01*
X103218929Y-72718929D02*
X105100000Y-74600000D01*
%TO.N,ring_home*%
X105300000Y-57500000D02*
X113164735Y-57500000D01*
X103218929Y-55418929D02*
X105300000Y-57500000D01*
X103218929Y-50889194D02*
X103218929Y-55418929D01*
X115303929Y-59639194D02*
X113143929Y-59639194D01*
X113164735Y-57500000D02*
X115303929Y-59639194D01*
%TO.N,ring_top*%
X103218929Y-33889194D02*
X103218929Y-38018929D01*
X113464735Y-40800000D02*
X115303929Y-42639194D01*
X103218929Y-38018929D02*
X106000000Y-40800000D01*
X115303929Y-42639194D02*
X113143929Y-42639194D01*
X106000000Y-40800000D02*
X113464735Y-40800000D01*
%TO.N,P7*%
X155048877Y-88151123D02*
X155048877Y-90139761D01*
X132900000Y-24300000D02*
X132900000Y-26558123D01*
X183268929Y-94931071D02*
X183268929Y-80974195D01*
X183268929Y-80974195D02*
X182093929Y-79799195D01*
X132800000Y-58200000D02*
X132768929Y-58231071D01*
X182000000Y-96200000D02*
X183268929Y-94931071D01*
X155700000Y-87500000D02*
X155048877Y-88151123D01*
X180914000Y-79799000D02*
X182094000Y-79799000D01*
X132900000Y-26558123D02*
X132768929Y-26689194D01*
X132800000Y-41200000D02*
X132768929Y-41231071D01*
X132768929Y-41231071D02*
X132768929Y-43689195D01*
X132768929Y-58231071D02*
X132768929Y-60689195D01*
%TO.N,middle_bottom*%
X131464734Y-69800000D02*
X133303929Y-71639195D01*
X122700000Y-69800000D02*
X131464734Y-69800000D01*
X121218929Y-68318929D02*
X122700000Y-69800000D01*
X121218929Y-62889195D02*
X121218929Y-68318929D01*
X133303929Y-71639195D02*
X131143929Y-71639195D01*
%TO.N,middle_home*%
X131264734Y-52600000D02*
X133303929Y-54639195D01*
X133303929Y-54639195D02*
X131143929Y-54639195D01*
X121218929Y-45889195D02*
X121218929Y-50118929D01*
X121218929Y-50118929D02*
X123700000Y-52600000D01*
X123700000Y-52600000D02*
X131264734Y-52600000D01*
%TO.N,middle_top*%
X121218929Y-32818929D02*
X124100000Y-35700000D01*
X133303929Y-37639194D02*
X131143929Y-37639194D01*
X131364735Y-35700000D02*
X133303929Y-37639194D01*
X124100000Y-35700000D02*
X131364735Y-35700000D01*
X121218929Y-28889194D02*
X121218929Y-32818929D01*
%TO.N,P8*%
X150768929Y-30031071D02*
X150768929Y-32689195D01*
X182818929Y-83064195D02*
X182818929Y-90381071D01*
X177400000Y-96871726D02*
X177400000Y-95800000D01*
X182093929Y-82339195D02*
X182818929Y-83064195D01*
X176124540Y-98147186D02*
X177400000Y-96871726D01*
X150900000Y-64200000D02*
X150768929Y-64331071D01*
X150768929Y-47331071D02*
X150768929Y-49689195D01*
X150800000Y-30000000D02*
X150768929Y-30031071D01*
X182818929Y-90381071D02*
X180100000Y-93100000D01*
X180914000Y-82339000D02*
X182094000Y-82339000D01*
X150768929Y-64331071D02*
X150768929Y-66689195D01*
X150900000Y-47200000D02*
X150768929Y-47331071D01*
%TO.N,index_bottom*%
X139218929Y-72618929D02*
X142400000Y-75800000D01*
X151303929Y-77639195D02*
X149143929Y-77639195D01*
X149464734Y-75800000D02*
X151303929Y-77639195D01*
X139218929Y-68889195D02*
X139218929Y-72618929D01*
X142400000Y-75800000D02*
X149464734Y-75800000D01*
%TO.N,index_home*%
X139218929Y-55818929D02*
X142100000Y-58700000D01*
X142100000Y-58700000D02*
X149364734Y-58700000D01*
X151303929Y-60639195D02*
X149143929Y-60639195D01*
X139218929Y-51889195D02*
X139218929Y-55818929D01*
X149364734Y-58700000D02*
X151303929Y-60639195D01*
%TO.N,index_top*%
X139218929Y-38818929D02*
X142100000Y-41700000D01*
X139218929Y-34889195D02*
X139218929Y-38818929D01*
X151303929Y-43639195D02*
X149143929Y-43639195D01*
X142100000Y-41700000D02*
X149364734Y-41700000D01*
X149364734Y-41700000D02*
X151303929Y-43639195D01*
%TO.N,P9*%
X168768929Y-32168929D02*
X168768929Y-34689194D01*
X168800000Y-49100000D02*
X168768929Y-49131071D01*
X180914000Y-84879000D02*
X182094000Y-84879000D01*
X193300000Y-102400000D02*
X185300000Y-102400000D01*
X185300000Y-102400000D02*
X178800000Y-95900000D01*
X197000000Y-107800000D02*
X197000000Y-106100000D01*
X168700000Y-66100000D02*
X168768929Y-66168929D01*
X178800000Y-95900000D02*
X178800000Y-89700000D01*
X178800000Y-89700000D02*
X182093929Y-86406071D01*
X168768929Y-66168929D02*
X168768929Y-68689195D01*
X168768929Y-49131071D02*
X168768929Y-51689194D01*
X168700000Y-32100000D02*
X168768929Y-32168929D01*
X195310003Y-109954147D02*
X197000000Y-108264150D01*
X182093929Y-86406071D02*
X182093929Y-84879195D01*
X197000000Y-106100000D02*
X193300000Y-102400000D01*
X197000000Y-108264150D02*
X197000000Y-107800000D01*
%TO.N,inner_bottom*%
X157218929Y-74818929D02*
X160100000Y-77700000D01*
X165204734Y-77700000D02*
X167143929Y-79639195D01*
X160100000Y-77700000D02*
X165204734Y-77700000D01*
X169303929Y-79639195D02*
X167143929Y-79639195D01*
X157218929Y-70889195D02*
X157218929Y-74818929D01*
%TO.N,inner_home*%
X158700000Y-60500000D02*
X167164735Y-60500000D01*
X157218929Y-59018929D02*
X158700000Y-60500000D01*
X157218929Y-53889194D02*
X157218929Y-59018929D01*
X167164735Y-60500000D02*
X169303929Y-62639194D01*
X169303929Y-62639194D02*
X167143929Y-62639194D01*
%TO.N,inner_top*%
X157218929Y-41118929D02*
X159800000Y-43700000D01*
X159800000Y-43700000D02*
X167364735Y-43700000D01*
X157218929Y-36889194D02*
X157218929Y-41118929D01*
X167364735Y-43700000D02*
X169303929Y-45639194D01*
X169303929Y-45639194D02*
X167143929Y-45639194D01*
%TO.N,near_thumb*%
X121218929Y-93018929D02*
X123800000Y-95600000D01*
X123800000Y-95600000D02*
X131264735Y-95600000D01*
X121218929Y-88889194D02*
X121218929Y-93018929D01*
X133303929Y-97639194D02*
X131143929Y-97639194D01*
X131264735Y-95600000D02*
X133303929Y-97639194D01*
%TO.N,home_thumb*%
X153295552Y-100961710D02*
X151631844Y-100961710D01*
X146000000Y-97800000D02*
X150133842Y-97800000D01*
X143293866Y-89890305D02*
X143293866Y-95093866D01*
X150133842Y-97800000D02*
X153295552Y-100961710D01*
X143293866Y-95093866D02*
X146000000Y-97800000D01*
X151631844Y-100961710D02*
X151182754Y-100512620D01*
%TO.N,one_more_thumb*%
X162900000Y-97237448D02*
X164678270Y-95459178D01*
X172159521Y-106159521D02*
X171700000Y-105700000D01*
X171064815Y-108368113D02*
X170186263Y-107489561D01*
X168200000Y-104600000D02*
X166000000Y-102400000D01*
X162900000Y-102400000D02*
X162900000Y-97237448D01*
X172159521Y-108368113D02*
X171064815Y-108368113D01*
X170700000Y-105700000D02*
X169600000Y-104600000D01*
X169600000Y-104600000D02*
X168200000Y-104600000D01*
X171700000Y-105700000D02*
X170700000Y-105700000D01*
X172159521Y-108368113D02*
X172159521Y-106159521D01*
X166000000Y-102400000D02*
X162900000Y-102400000D01*
%TO.N,far_thumb*%
X181700000Y-107917793D02*
X181700000Y-109600000D01*
X184672729Y-104945064D02*
X181700000Y-107917793D01*
X181700000Y-109600000D02*
X187559102Y-115459102D01*
X189306579Y-119127348D02*
X188828718Y-119127348D01*
X187559102Y-115459102D02*
X187559102Y-117857732D01*
X188828718Y-119127348D02*
X187559102Y-117857732D01*
%TO.N,P2*%
X143683929Y-43639195D02*
X140539195Y-43639195D01*
X71588330Y-56977483D02*
X69624805Y-56977483D01*
X87368054Y-55596935D02*
X84564989Y-58400000D01*
X89171119Y-57400000D02*
X87368054Y-55596935D01*
X61900000Y-69200000D02*
X61700000Y-69400000D01*
X70670810Y-58400000D02*
X69436549Y-57165739D01*
X54898192Y-69400000D02*
X52202291Y-66704099D01*
X176000000Y-65600000D02*
X176200000Y-65800000D01*
X161683929Y-45639194D02*
X145683928Y-45639194D01*
X96400000Y-57400000D02*
X89171119Y-57400000D01*
X161683929Y-45639194D02*
X164044735Y-48000000D01*
X125060806Y-37639194D02*
X118000000Y-44700000D01*
X109744735Y-44700000D02*
X107683929Y-42639194D01*
X125683929Y-37639194D02*
X125060806Y-37639194D01*
X180914000Y-67099000D02*
X182094000Y-67099000D01*
X107683929Y-42639194D02*
X99600000Y-50723123D01*
X109843929Y-42639194D02*
X107683929Y-42639194D01*
X168725305Y-48000000D02*
X176000000Y-55274695D01*
X61700000Y-69400000D02*
X54898192Y-69400000D01*
X69436549Y-57165739D02*
X68134261Y-57165739D01*
X176200000Y-65800000D02*
X182093929Y-65800000D01*
X54354072Y-66515843D02*
X52390547Y-66515843D01*
X164044735Y-48000000D02*
X168725305Y-48000000D01*
X118000000Y-44700000D02*
X109744735Y-44700000D01*
X163843929Y-45639194D02*
X161683929Y-45639194D01*
X99600000Y-54200000D02*
X96400000Y-57400000D01*
X127843929Y-37639194D02*
X125683929Y-37639194D01*
X127944735Y-39900000D02*
X125683929Y-37639194D01*
X136800000Y-39900000D02*
X127944735Y-39900000D01*
X176000000Y-54574695D02*
X176000000Y-65600000D01*
X52390547Y-66515843D02*
X52202291Y-66704099D01*
X69624805Y-56977483D02*
X69436549Y-57165739D01*
X61900000Y-63400000D02*
X61900000Y-69200000D01*
X89519835Y-55408679D02*
X87556310Y-55408679D01*
X87556310Y-55408679D02*
X87368054Y-55596935D01*
X140539195Y-43639195D02*
X136800000Y-39900000D01*
X99600000Y-50723123D02*
X99600000Y-54200000D01*
X182093929Y-65800000D02*
X182093929Y-67099195D01*
X145683928Y-45639194D02*
X143683929Y-43639195D01*
X145843929Y-43639195D02*
X143683929Y-43639195D01*
X84564989Y-58400000D02*
X70670810Y-58400000D01*
X68134261Y-57165739D02*
X61900000Y-63400000D01*
%TO.N,P4*%
X98700000Y-92500000D02*
X93363794Y-92500000D01*
X145683929Y-79639195D02*
X143683929Y-77639195D01*
X107739195Y-76639195D02*
X107683929Y-76639195D01*
X110600000Y-79500000D02*
X107739195Y-76639195D01*
X107683929Y-83516071D02*
X98700000Y-92500000D01*
X107683929Y-76639195D02*
X107683929Y-83516071D01*
X161683929Y-79639195D02*
X164144734Y-82100000D01*
X164144734Y-82100000D02*
X174100000Y-82100000D01*
X161683929Y-79639195D02*
X145683929Y-79639195D01*
X174100000Y-82100000D02*
X174100000Y-76100000D01*
X124260805Y-71639195D02*
X116400000Y-79500000D01*
X73863487Y-92500000D02*
X72399845Y-91036358D01*
X74551626Y-90848102D02*
X72588101Y-90848102D01*
X131683929Y-77639195D02*
X125683929Y-71639195D01*
X93363794Y-92500000D02*
X90331349Y-89467555D01*
X163843929Y-79639195D02*
X161683929Y-79639195D01*
X174100000Y-76100000D02*
X176700000Y-73500000D01*
X182093929Y-73500000D02*
X182093929Y-72179195D01*
X109843929Y-76639195D02*
X107683929Y-76639195D01*
X92483130Y-89279299D02*
X90519605Y-89279299D01*
X72588101Y-90848102D02*
X72399845Y-91036358D01*
X90519605Y-89279299D02*
X90331349Y-89467555D01*
X90331349Y-89467555D02*
X87298904Y-92500000D01*
X127843929Y-71639195D02*
X125683929Y-71639195D01*
X116400000Y-79500000D02*
X110600000Y-79500000D01*
X125683929Y-71639195D02*
X124260805Y-71639195D01*
X176700000Y-73500000D02*
X182093929Y-73500000D01*
X87298904Y-92500000D02*
X73863487Y-92500000D01*
X180914000Y-72179000D02*
X182094000Y-72179000D01*
X143683929Y-77639195D02*
X131683929Y-77639195D01*
X145843929Y-77639195D02*
X143683929Y-77639195D01*
%TO.N,P3*%
X161683929Y-62639194D02*
X145683928Y-62639194D01*
X182093929Y-68400000D02*
X182093929Y-69639195D01*
X163843929Y-62639194D02*
X161683929Y-62639194D01*
X180914000Y-69639000D02*
X182094000Y-69639000D01*
X99600000Y-74300000D02*
X90617456Y-74300000D01*
X177400000Y-68400000D02*
X182093929Y-68400000D01*
X139939195Y-60639195D02*
X135900000Y-56600000D01*
X83467755Y-72532245D02*
X80200000Y-75800000D01*
X127843929Y-54639195D02*
X125683929Y-54639195D01*
X117000000Y-61900000D02*
X109944735Y-61900000D01*
X145683928Y-62639194D02*
X143683929Y-60639195D01*
X88849701Y-72532245D02*
X83467755Y-72532245D01*
X109944735Y-61900000D02*
X107683929Y-59639194D01*
X174375000Y-65375000D02*
X177400000Y-68400000D01*
X143683929Y-60639195D02*
X139939195Y-60639195D01*
X127644734Y-56600000D02*
X125683929Y-54639195D01*
X80200000Y-75800000D02*
X72617149Y-75800000D01*
X90617456Y-74300000D02*
X88849701Y-72532245D01*
X89037957Y-72343989D02*
X88849701Y-72532245D01*
X109843929Y-59639194D02*
X107683929Y-59639194D01*
X161683929Y-62639194D02*
X164419735Y-65375000D01*
X91001482Y-72343989D02*
X89037957Y-72343989D01*
X107683929Y-59639194D02*
X106160806Y-59639194D01*
X117300000Y-57000000D02*
X117300000Y-61600000D01*
X73069978Y-73912792D02*
X71106453Y-73912792D01*
X99600000Y-66200000D02*
X99600000Y-74300000D01*
X145843929Y-60639195D02*
X143683929Y-60639195D01*
X119660805Y-54639195D02*
X117300000Y-57000000D01*
X125683929Y-54639195D02*
X119660805Y-54639195D01*
X135900000Y-56600000D02*
X127644734Y-56600000D01*
X106160806Y-59639194D02*
X99600000Y-66200000D01*
X117300000Y-61600000D02*
X117000000Y-61900000D01*
X164419735Y-65375000D02*
X174375000Y-65375000D01*
X71106453Y-73912792D02*
X70918197Y-74101048D01*
X72617149Y-75800000D02*
X70918197Y-74101048D01*
%TO.N,P5*%
X184411485Y-115918040D02*
X183141869Y-114648424D01*
X166076857Y-106147331D02*
X165198305Y-105268779D01*
X124544929Y-97639194D02*
X119100000Y-92194265D01*
X149664646Y-103200000D02*
X145842068Y-99377422D01*
X146291158Y-99826512D02*
X145842068Y-99377422D01*
X175900000Y-83500000D02*
X175900000Y-77100000D01*
X153600000Y-103200000D02*
X149664646Y-103200000D01*
X155668779Y-105268779D02*
X153600000Y-103200000D01*
X145842068Y-99377422D02*
X127422157Y-99377422D01*
X177000000Y-76000000D02*
X182093929Y-76000000D01*
X175900000Y-77100000D02*
X177000000Y-76000000D01*
X175825000Y-83575000D02*
X175900000Y-83500000D01*
X177148424Y-114648424D02*
X173600000Y-111100000D01*
X184889346Y-115918040D02*
X184411485Y-115918040D01*
X173600000Y-111100000D02*
X168900000Y-111100000D01*
X147954866Y-99826512D02*
X146291158Y-99826512D01*
X168900000Y-111100000D02*
X165198305Y-107398305D01*
X165198305Y-105268779D02*
X155668779Y-105268779D01*
X167171563Y-106147331D02*
X166076857Y-106147331D01*
X180914000Y-74719000D02*
X182094000Y-74719000D01*
X119100000Y-92194265D02*
X119100000Y-83600000D01*
X119100000Y-83600000D02*
X119125000Y-83575000D01*
X127843929Y-97639194D02*
X125683929Y-97639194D01*
X119125000Y-83575000D02*
X175825000Y-83575000D01*
X182093929Y-76000000D02*
X182093929Y-74719195D01*
X183141869Y-114648424D02*
X177148424Y-114648424D01*
X127422157Y-99377422D02*
X125683929Y-97639194D01*
X165198305Y-107398305D02*
X165198305Y-105268779D01*
X125683929Y-97639194D02*
X124544929Y-97639194D01*
%TO.N,RAW*%
X190074000Y-56939000D02*
X188894000Y-56939000D01*
%TO.N,GND*%
X196000000Y-59000000D02*
X195200000Y-58200000D01*
X180914000Y-64559000D02*
X182094000Y-64559000D01*
X190074000Y-59479000D02*
X188894000Y-59479000D01*
X180914000Y-62019000D02*
X182094000Y-62019000D01*
X188893929Y-58200000D02*
X188893929Y-59479195D01*
X195200000Y-58200000D02*
X188893929Y-58200000D01*
%TO.N,RST*%
X190074000Y-62019000D02*
X188894000Y-62019000D01*
X197900000Y-86300000D02*
X197900000Y-64400000D01*
X194200000Y-60700000D02*
X188893929Y-60700000D01*
X197900000Y-64400000D02*
X194200000Y-60700000D01*
X201050073Y-89450073D02*
X197900000Y-86300000D01*
X188893929Y-60700000D02*
X188893929Y-62019195D01*
X201050073Y-102011086D02*
X201050073Y-89450073D01*
%TO.N,VCC*%
X193800000Y-65800000D02*
X190134734Y-65800000D01*
X196905190Y-68905190D02*
X193800000Y-65800000D01*
X190074000Y-64559000D02*
X188894000Y-64559000D01*
X196905190Y-88335598D02*
X196905190Y-68905190D01*
X190134734Y-65800000D02*
X188893929Y-64559195D01*
%TO.N,P18*%
X190074000Y-74719000D02*
X188894000Y-74719000D01*
%TO.N,P15*%
X190074000Y-77259000D02*
X188894000Y-77259000D01*
%TO.N,P14*%
X190074000Y-79799000D02*
X188894000Y-79799000D01*
%TO.N,P16*%
X190074000Y-82339000D02*
X188894000Y-82339000D01*
%TO.N,P10*%
X190074000Y-84879000D02*
X188894000Y-84879000D01*
%TO.N,P1*%
X180914000Y-56939000D02*
X182094000Y-56939000D01*
%TO.N,P0*%
X185000000Y-88000000D02*
X185000000Y-62385266D01*
X180914000Y-59479000D02*
X182094000Y-59479000D01*
X185000000Y-62385266D02*
X182093929Y-59479195D01*
%TO.N,MCU1_24*%
X177874000Y-56939000D02*
X179994000Y-56939000D01*
%TO.N,MCU1_1*%
X190994000Y-56939000D02*
X193114000Y-56939000D01*
%TO.N,MCU1_23*%
X177874000Y-59479000D02*
X179994000Y-59479000D01*
%TO.N,MCU1_2*%
X190994000Y-59479000D02*
X193114000Y-59479000D01*
%TO.N,MCU1_22*%
X177874000Y-62019000D02*
X179994000Y-62019000D01*
%TO.N,MCU1_3*%
X190994000Y-62019000D02*
X193114000Y-62019000D01*
%TO.N,MCU1_21*%
X177874000Y-64559000D02*
X179994000Y-64559000D01*
%TO.N,MCU1_4*%
X190994000Y-64559000D02*
X193114000Y-64559000D01*
%TO.N,MCU1_20*%
X177874000Y-67099000D02*
X179994000Y-67099000D01*
%TO.N,MCU1_5*%
X190994000Y-67099000D02*
X193114000Y-67099000D01*
%TO.N,MCU1_19*%
X177874000Y-69639000D02*
X179994000Y-69639000D01*
%TO.N,MCU1_6*%
X190994000Y-69639000D02*
X193114000Y-69639000D01*
%TO.N,MCU1_18*%
X177874000Y-72179000D02*
X179994000Y-72179000D01*
%TO.N,MCU1_7*%
X190994000Y-72179000D02*
X193114000Y-72179000D01*
%TO.N,MCU1_17*%
X177874000Y-74719000D02*
X179994000Y-74719000D01*
%TO.N,MCU1_8*%
X190994000Y-74719000D02*
X193114000Y-74719000D01*
%TO.N,MCU1_16*%
X177874000Y-77259000D02*
X179994000Y-77259000D01*
%TO.N,MCU1_9*%
X190994000Y-77259000D02*
X193114000Y-77259000D01*
%TO.N,MCU1_15*%
X177874000Y-79799000D02*
X179994000Y-79799000D01*
%TO.N,MCU1_10*%
X190994000Y-79799000D02*
X193114000Y-79799000D01*
%TO.N,MCU1_14*%
X177874000Y-82339000D02*
X179994000Y-82339000D01*
%TO.N,MCU1_11*%
X190994000Y-82339000D02*
X193114000Y-82339000D01*
%TO.N,MCU1_13*%
X177874000Y-84879000D02*
X179994000Y-84879000D01*
%TO.N,MCU1_12*%
X190994000Y-84879000D02*
X193114000Y-84879000D01*
%TD*%
M02*
