%TF.GenerationSoftware,KiCad,Pcbnew,7.0.10*%
%TF.CreationDate,2024-02-18T22:51:37+03:00*%
%TF.ProjectId,jcuken_1,6a63756b-656e-45f3-912e-6b696361645f,0.1*%
%TF.SameCoordinates,Original*%
%TF.FileFunction,Soldermask,Bot*%
%TF.FilePolarity,Negative*%
%FSLAX46Y46*%
G04 Gerber Fmt 4.6, Leading zero omitted, Abs format (unit mm)*
G04 Created by KiCad (PCBNEW 7.0.10) date 2024-02-18 22:51:37*
%MOMM*%
%LPD*%
G01*
G04 APERTURE LIST*
G04 Aperture macros list*
%AMRoundRect*
0 Rectangle with rounded corners*
0 $1 Rounding radius*
0 $2 $3 $4 $5 $6 $7 $8 $9 X,Y pos of 4 corners*
0 Add a 4 corners polygon primitive as box body*
4,1,4,$2,$3,$4,$5,$6,$7,$8,$9,$2,$3,0*
0 Add four circle primitives for the rounded corners*
1,1,$1+$1,$2,$3*
1,1,$1+$1,$4,$5*
1,1,$1+$1,$6,$7*
1,1,$1+$1,$8,$9*
0 Add four rect primitives between the rounded corners*
20,1,$1+$1,$2,$3,$4,$5,0*
20,1,$1+$1,$4,$5,$6,$7,0*
20,1,$1+$1,$6,$7,$8,$9,0*
20,1,$1+$1,$8,$9,$2,$3,0*%
%AMHorizOval*
0 Thick line with rounded ends*
0 $1 width*
0 $2 $3 position (X,Y) of the first rounded end (center of the circle)*
0 $4 $5 position (X,Y) of the second rounded end (center of the circle)*
0 Add line between two ends*
20,1,$1,$2,$3,$4,$5,0*
0 Add two circle primitives to create the rounded ends*
1,1,$1,$2,$3*
1,1,$1,$4,$5*%
G04 Aperture macros list end*
%ADD10C,2.100000*%
%ADD11C,1.801800*%
%ADD12C,3.100000*%
%ADD13C,3.529000*%
%ADD14RoundRect,0.050000X-1.300000X-1.300000X1.300000X-1.300000X1.300000X1.300000X-1.300000X1.300000X0*%
%ADD15RoundRect,0.050000X-0.808136X-0.963099X0.963099X-0.808136X0.808136X0.963099X-0.963099X0.808136X0*%
%ADD16RoundRect,0.050000X-0.395994X-0.636937X0.500581X-0.558497X0.395994X0.636937X-0.500581X0.558497X0*%
%ADD17C,2.005000*%
%ADD18RoundRect,0.050000X-1.241757X-0.196675X0.196675X-1.241757X1.241757X0.196675X-0.196675X1.241757X0*%
%ADD19RoundRect,0.050000X-0.716729X-0.220907X0.011386X-0.749914X0.716729X0.220907X-0.011386X0.749914X0*%
%ADD20RoundRect,0.050000X-0.889000X-0.889000X0.889000X-0.889000X0.889000X0.889000X-0.889000X0.889000X0*%
%ADD21RoundRect,0.050000X-0.450000X-0.600000X0.450000X-0.600000X0.450000X0.600000X-0.450000X0.600000X0*%
%ADD22RoundRect,0.050000X-1.716367X-0.658851X0.658851X-1.716367X1.716367X0.658851X-0.658851X1.716367X0*%
%ADD23C,0.800000*%
%ADD24C,4.500000*%
%ADD25RoundRect,0.050000X-1.181751X-1.408356X1.408356X-1.181751X1.181751X1.408356X-1.408356X1.181751X0*%
%ADD26RoundRect,0.050000X-1.054407X-0.684740X0.684740X-1.054407X1.054407X0.684740X-0.684740X1.054407X0*%
%ADD27RoundRect,0.050000X-0.564913X-0.493328X0.315419X-0.680449X0.564913X0.493328X-0.315419X0.680449X0*%
%ADD28C,1.600000*%
%ADD29HorizOval,1.700000X-0.846765X-0.074082X0.846765X0.074082X0*%
%ADD30HorizOval,1.700000X-0.298858X-0.026147X0.298858X0.026147X0*%
%ADD31RoundRect,0.050000X-0.300000X-0.600000X0.300000X-0.600000X0.300000X0.600000X-0.300000X0.600000X0*%
%ADD32C,0.900000*%
%ADD33C,1.800000*%
%ADD34RoundRect,0.050000X-1.815843X-0.287601X0.287601X-1.815843X1.815843X0.287601X-0.287601X1.815843X0*%
%ADD35RoundRect,0.050000X-1.541877X-1.001307X1.001307X-1.541877X1.541877X1.001307X-1.001307X1.541877X0*%
%ADD36RoundRect,0.050000X-1.173731X-0.450553X0.450553X-1.173731X1.173731X0.450553X-0.450553X1.173731X0*%
%ADD37RoundRect,0.050000X-0.655137X-0.365096X0.167053X-0.731159X0.655137X0.365096X-0.167053X0.731159X0*%
G04 APERTURE END LIST*
D10*
%TO.C,B1*%
X201050073Y-102011086D03*
X195791463Y-98190482D03*
%TD*%
D11*
%TO.C,S16*%
X141993929Y-38639195D03*
D12*
X142493929Y-34889195D03*
X147493929Y-32689195D03*
X147493929Y-32689195D03*
D13*
X147493929Y-38639195D03*
D12*
X152493929Y-34889195D03*
D11*
X152993929Y-38639195D03*
D14*
X144218929Y-32689195D03*
X155768929Y-34889195D03*
%TD*%
D15*
%TO.C,D3*%
X70918197Y-74101048D03*
D16*
X73069978Y-73912792D03*
X76357420Y-73625178D03*
D17*
X78509201Y-73436922D03*
%TD*%
D18*
%TO.C,D23*%
X183141869Y-114648424D03*
D19*
X184889346Y-115918040D03*
X187559102Y-117857732D03*
D17*
X189306579Y-119127348D03*
%TD*%
D20*
%TO.C,D8*%
X107683929Y-76639195D03*
D21*
X109843929Y-76639195D03*
X113143929Y-76639195D03*
D17*
X115303929Y-76639195D03*
%TD*%
D20*
%TO.C,D18*%
X161683929Y-62639194D03*
D21*
X163843929Y-62639194D03*
X167143929Y-62639194D03*
D17*
X169303929Y-62639194D03*
%TD*%
D11*
%TO.C,S22*%
X165688096Y-100013667D03*
D12*
X167670131Y-96791240D03*
X173132679Y-96815124D03*
X173132679Y-96815124D03*
D13*
X170712596Y-102250719D03*
D12*
X176805586Y-100858607D03*
D11*
X175737096Y-104487771D03*
D22*
X170140818Y-95483061D03*
X179797447Y-102190669D03*
%TD*%
D15*
%TO.C,D2*%
X72399845Y-91036358D03*
D16*
X74551626Y-90848102D03*
X77839068Y-90560488D03*
D17*
X79990849Y-90372232D03*
%TD*%
D23*
%TO.C,_1*%
X57203387Y-48599331D03*
X57583135Y-47394925D03*
X57786509Y-49719497D03*
X58703301Y-46811803D03*
D24*
X58847108Y-48455524D03*
D23*
X58990915Y-50099245D03*
X59907707Y-47191551D03*
X60111081Y-49516123D03*
X60490829Y-48311717D03*
%TD*%
D11*
%TO.C,S18*%
X159993929Y-57639194D03*
D12*
X160493929Y-53889194D03*
X165493929Y-51689194D03*
X165493929Y-51689194D03*
D13*
X165493929Y-57639194D03*
D12*
X170493929Y-53889194D03*
D11*
X170993929Y-57639194D03*
D14*
X162218929Y-51689194D03*
X173768929Y-53889194D03*
%TD*%
D11*
%TO.C,S7*%
X85248706Y-50763256D03*
D12*
X85419969Y-46983948D03*
X90209200Y-44356541D03*
X90209200Y-44356541D03*
D13*
X90727777Y-50283899D03*
D12*
X95381916Y-46112390D03*
D11*
X96206848Y-49804542D03*
D25*
X86946663Y-44641976D03*
X98644454Y-45826955D03*
%TD*%
D23*
%TO.C,_3*%
X141443929Y-26039195D03*
X141927203Y-24872469D03*
X141927203Y-27205921D03*
X143093929Y-24389195D03*
D24*
X143093929Y-26039195D03*
D23*
X143093929Y-27689195D03*
X144260655Y-24872469D03*
X144260655Y-27205921D03*
X144743929Y-26039195D03*
%TD*%
D26*
%TO.C,D21*%
X145842068Y-99377422D03*
D27*
X147954866Y-99826512D03*
X151182754Y-100512620D03*
D17*
X153295552Y-100961710D03*
%TD*%
D11*
%TO.C,S14*%
X141993929Y-72639195D03*
D12*
X142493929Y-68889195D03*
X147493929Y-66689195D03*
X147493929Y-66689195D03*
D13*
X147493929Y-72639195D03*
D12*
X152493929Y-68889195D03*
D11*
X152993929Y-72639195D03*
D14*
X144218929Y-66689195D03*
X155768929Y-68889195D03*
%TD*%
D20*
%TO.C,D11*%
X125683929Y-71639195D03*
D21*
X127843929Y-71639195D03*
X131143929Y-71639195D03*
D17*
X133303929Y-71639195D03*
%TD*%
D15*
%TO.C,D1*%
X52202291Y-66704099D03*
D16*
X54354072Y-66515843D03*
X57641514Y-66228229D03*
D17*
X59793295Y-66039973D03*
%TD*%
D20*
%TO.C,D12*%
X125683929Y-54639195D03*
D21*
X127843929Y-54639195D03*
X131143929Y-54639195D03*
D17*
X133303929Y-54639195D03*
%TD*%
D20*
%TO.C,D15*%
X143683929Y-60639195D03*
D21*
X145843929Y-60639195D03*
X149143929Y-60639195D03*
D17*
X151303929Y-60639195D03*
%TD*%
D11*
%TO.C,S9*%
X105993929Y-54639194D03*
D12*
X106493929Y-50889194D03*
X111493929Y-48689194D03*
X111493929Y-48689194D03*
D13*
X111493929Y-54639194D03*
D12*
X116493929Y-50889194D03*
D11*
X116993929Y-54639194D03*
D14*
X108218929Y-48689194D03*
X119768929Y-50889194D03*
%TD*%
D11*
%TO.C,S19*%
X159993929Y-40639194D03*
D12*
X160493929Y-36889194D03*
X165493929Y-34689194D03*
X165493929Y-34689194D03*
D13*
X165493929Y-40639194D03*
D12*
X170493929Y-36889194D03*
D11*
X170993929Y-40639194D03*
D14*
X162218929Y-34689194D03*
X173768929Y-36889194D03*
%TD*%
D20*
%TO.C,D17*%
X161683929Y-79639195D03*
D21*
X163843929Y-79639195D03*
X167143929Y-79639195D03*
D17*
X169303929Y-79639195D03*
%TD*%
D11*
%TO.C,S1*%
X50082943Y-61870420D03*
D12*
X50254206Y-58091112D03*
X55043437Y-55463705D03*
X55043437Y-55463705D03*
D13*
X55562014Y-61391063D03*
D12*
X60216153Y-57219554D03*
D11*
X61041085Y-60911706D03*
D25*
X51780900Y-55749140D03*
X63478691Y-56934119D03*
%TD*%
D28*
%TO.C,TRRS1*%
X198699559Y-90487396D03*
X191726196Y-91097487D03*
D29*
X189383920Y-88993624D03*
X189784836Y-93576119D03*
D30*
X193916605Y-88597065D03*
X194317522Y-93179561D03*
X196905190Y-88335598D03*
X197306106Y-92918093D03*
%TD*%
D31*
%TO.C,MCU1*%
X180913929Y-56939195D03*
D32*
X188893929Y-56939195D03*
D33*
X193113929Y-56939195D03*
D31*
X180913929Y-59479195D03*
D32*
X188893929Y-59479195D03*
D33*
X193113929Y-59479195D03*
D31*
X180913929Y-62019195D03*
D32*
X188893929Y-62019195D03*
D33*
X193113929Y-62019195D03*
D31*
X180913929Y-64559195D03*
D32*
X188893929Y-64559195D03*
D33*
X193113929Y-64559195D03*
D31*
X180913929Y-67099195D03*
D32*
X188893929Y-67099195D03*
D33*
X193113929Y-67099195D03*
D31*
X180913929Y-69639195D03*
D32*
X188893929Y-69639195D03*
D33*
X193113929Y-69639195D03*
D31*
X180913929Y-72179195D03*
D32*
X188893929Y-72179195D03*
D33*
X193113929Y-72179195D03*
D31*
X180913929Y-74719195D03*
D32*
X188893929Y-74719195D03*
D33*
X193113929Y-74719195D03*
D31*
X180913929Y-77259195D03*
D32*
X188893929Y-77259195D03*
D33*
X193113929Y-77259195D03*
D31*
X180913929Y-79799195D03*
D32*
X188893929Y-79799195D03*
D33*
X193113929Y-79799195D03*
D31*
X180913929Y-82339195D03*
D32*
X188893929Y-82339195D03*
D33*
X193113929Y-82339195D03*
D31*
X180913929Y-84879195D03*
D32*
X188893929Y-84879195D03*
D33*
X193113929Y-84879195D03*
X177873929Y-84879195D03*
D31*
X180013929Y-84879195D03*
X190973929Y-84879195D03*
D33*
X177873929Y-82339195D03*
D31*
X180013929Y-82339195D03*
X190973929Y-82339195D03*
D33*
X177873929Y-79799195D03*
D31*
X180013929Y-79799195D03*
X190973929Y-79799195D03*
D33*
X177873929Y-77259195D03*
D31*
X180013929Y-77259195D03*
X190973929Y-77259195D03*
D33*
X177873929Y-74719195D03*
D31*
X180013929Y-74719195D03*
X190973929Y-74719195D03*
D33*
X177873929Y-72179195D03*
D31*
X180013929Y-72179195D03*
X190973929Y-72179195D03*
D33*
X177873929Y-69639195D03*
D31*
X180013929Y-69639195D03*
X190973929Y-69639195D03*
D33*
X177873929Y-67099195D03*
D31*
X180013929Y-67099195D03*
X190973929Y-67099195D03*
D33*
X177873929Y-64559195D03*
D31*
X180013929Y-64559195D03*
X190973929Y-64559195D03*
D33*
X177873929Y-62019195D03*
D31*
X180013929Y-62019195D03*
X190973929Y-62019195D03*
D33*
X177873929Y-59479195D03*
D31*
X180013929Y-59479195D03*
X190973929Y-59479195D03*
D33*
X177873929Y-56939195D03*
D31*
X180013929Y-56939195D03*
X190973929Y-56939195D03*
D32*
X182093929Y-84879195D03*
D31*
X190073929Y-84879195D03*
D32*
X182093929Y-82339195D03*
D31*
X190073929Y-82339195D03*
D32*
X182093929Y-79799195D03*
D31*
X190073929Y-79799195D03*
D32*
X182093929Y-77259195D03*
D31*
X190073929Y-77259195D03*
D32*
X182093929Y-74719195D03*
D31*
X190073929Y-74719195D03*
D32*
X182093929Y-72179195D03*
D31*
X190073929Y-72179195D03*
D32*
X182093929Y-69639195D03*
D31*
X190073929Y-69639195D03*
D32*
X182093929Y-67099195D03*
D31*
X190073929Y-67099195D03*
D32*
X182093929Y-64559195D03*
D31*
X190073929Y-64559195D03*
D32*
X182093929Y-62019195D03*
D31*
X190073929Y-62019195D03*
D32*
X182093929Y-59479195D03*
D31*
X190073929Y-59479195D03*
D32*
X182093929Y-56939195D03*
D31*
X190073929Y-56939195D03*
%TD*%
D20*
%TO.C,D19*%
X161683929Y-45639194D03*
D21*
X163843929Y-45639194D03*
X167143929Y-45639194D03*
D17*
X169303929Y-45639194D03*
%TD*%
D20*
%TO.C,D14*%
X143683929Y-77639195D03*
D21*
X145843929Y-77639195D03*
X149143929Y-77639195D03*
D17*
X151303929Y-77639195D03*
%TD*%
D15*
%TO.C,D5*%
X90331349Y-89467555D03*
D16*
X92483130Y-89279299D03*
X95770572Y-88991685D03*
D17*
X97922353Y-88803429D03*
%TD*%
D15*
%TO.C,D4*%
X69436549Y-57165739D03*
D16*
X71588330Y-56977483D03*
X74875772Y-56689869D03*
D17*
X77027553Y-56501613D03*
%TD*%
D11*
%TO.C,S8*%
X105993929Y-71639195D03*
D12*
X106493929Y-67889195D03*
X111493929Y-65689195D03*
X111493929Y-65689195D03*
D13*
X111493929Y-71639195D03*
D12*
X116493929Y-67889195D03*
D11*
X116993929Y-71639195D03*
D14*
X108218929Y-65689195D03*
X119768929Y-67889195D03*
%TD*%
D11*
%TO.C,S6*%
X86730354Y-67698566D03*
D12*
X86901617Y-63919258D03*
X91690848Y-61291851D03*
X91690848Y-61291851D03*
D13*
X92209425Y-67219209D03*
D12*
X96863564Y-63047700D03*
D11*
X97688496Y-66739852D03*
D25*
X88428311Y-61577286D03*
X100126102Y-62762265D03*
%TD*%
D23*
%TO.C,_4*%
X118843929Y-58139195D03*
X119327203Y-56972469D03*
X119327203Y-59305921D03*
X120493929Y-56489195D03*
D24*
X120493929Y-58139195D03*
D23*
X120493929Y-59789195D03*
X121660655Y-56972469D03*
X121660655Y-59305921D03*
X122143929Y-58139195D03*
%TD*%
D11*
%TO.C,S20*%
X123993929Y-92639194D03*
D12*
X124493929Y-88889194D03*
X129493929Y-86689194D03*
X129493929Y-86689194D03*
D13*
X129493929Y-92639194D03*
D12*
X134493929Y-88889194D03*
D11*
X134993929Y-92639194D03*
D14*
X126218929Y-86689194D03*
X137768929Y-88889194D03*
%TD*%
D11*
%TO.C,S17*%
X159993929Y-74639195D03*
D12*
X160493929Y-70889195D03*
X165493929Y-68689195D03*
X165493929Y-68689195D03*
D13*
X165493929Y-74639195D03*
D12*
X170493929Y-70889195D03*
D11*
X170993929Y-74639195D03*
D14*
X162218929Y-68689195D03*
X173768929Y-70889195D03*
%TD*%
D20*
%TO.C,D16*%
X143683929Y-43639195D03*
D21*
X145843929Y-43639195D03*
X149143929Y-43639195D03*
D17*
X151303929Y-43639195D03*
%TD*%
D23*
%TO.C,_7*%
X172843929Y-49139194D03*
X173327203Y-47972468D03*
X173327203Y-50305920D03*
X174493929Y-47489194D03*
D24*
X174493929Y-49139194D03*
D23*
X174493929Y-50789194D03*
X175660655Y-47972468D03*
X175660655Y-50305920D03*
X176143929Y-49139194D03*
%TD*%
D11*
%TO.C,S23*%
X184713557Y-109609982D03*
D12*
X187322260Y-106870061D03*
X192660472Y-108029150D03*
X192660472Y-108029150D03*
D13*
X189163150Y-112842801D03*
D12*
X195412430Y-112747914D03*
D11*
X193612743Y-116075620D03*
D34*
X190010942Y-106104153D03*
X198061960Y-114672910D03*
%TD*%
D11*
%TO.C,S4*%
X67317202Y-52332059D03*
D12*
X67488465Y-48552751D03*
X72277696Y-45925344D03*
X72277696Y-45925344D03*
D13*
X72796273Y-51852702D03*
D12*
X77450412Y-47681193D03*
D11*
X78275344Y-51373345D03*
D25*
X69015159Y-46210779D03*
X80712950Y-47395758D03*
%TD*%
D20*
%TO.C,D13*%
X125683929Y-37639194D03*
D21*
X127843929Y-37639194D03*
X131143929Y-37639194D03*
D17*
X133303929Y-37639194D03*
%TD*%
D15*
%TO.C,D7*%
X87368054Y-55596935D03*
D16*
X89519835Y-55408679D03*
X92807277Y-55121065D03*
D17*
X94959058Y-54932809D03*
%TD*%
D11*
%TO.C,S3*%
X68798849Y-69267369D03*
D12*
X68970112Y-65488061D03*
X73759343Y-62860654D03*
X73759343Y-62860654D03*
D13*
X74277920Y-68788012D03*
D12*
X78932059Y-64616503D03*
D11*
X79756991Y-68308655D03*
D25*
X70496806Y-63146089D03*
X82194597Y-64331068D03*
%TD*%
D11*
%TO.C,S10*%
X105993929Y-37639194D03*
D12*
X106493929Y-33889194D03*
X111493929Y-31689194D03*
X111493929Y-31689194D03*
D13*
X111493929Y-37639194D03*
D12*
X116493929Y-33889194D03*
D11*
X116993929Y-37639194D03*
D14*
X108218929Y-31689194D03*
X119768929Y-33889194D03*
%TD*%
D15*
%TO.C,D6*%
X88849701Y-72532245D03*
D16*
X91001482Y-72343989D03*
X94288924Y-72056375D03*
D17*
X96440705Y-71868119D03*
%TD*%
D11*
%TO.C,S11*%
X123993929Y-66639195D03*
D12*
X124493929Y-62889195D03*
X129493929Y-60689195D03*
X129493929Y-60689195D03*
D13*
X129493929Y-66639195D03*
D12*
X134493929Y-62889195D03*
D11*
X134993929Y-66639195D03*
D14*
X126218929Y-60689195D03*
X137768929Y-62889195D03*
%TD*%
D23*
%TO.C,_5*%
X114343929Y-92639194D03*
X114827203Y-91472468D03*
X114827203Y-93805920D03*
X115993929Y-90989194D03*
D24*
X115993929Y-92639194D03*
D23*
X115993929Y-94289194D03*
X117160655Y-91472468D03*
X117160655Y-93805920D03*
X117643929Y-92639194D03*
%TD*%
%TO.C,_2*%
X60667218Y-87043731D03*
X61046966Y-85839325D03*
X61250340Y-88163897D03*
X62167132Y-85256203D03*
D24*
X62310939Y-86899924D03*
D23*
X62454746Y-88543645D03*
X63371538Y-85635951D03*
X63574912Y-87960523D03*
X63954660Y-86756117D03*
%TD*%
D11*
%TO.C,S5*%
X88212001Y-84633875D03*
D12*
X88383264Y-80854567D03*
X93172495Y-78227160D03*
X93172495Y-78227160D03*
D13*
X93691072Y-84154518D03*
D12*
X98345211Y-79983009D03*
D11*
X99170143Y-83675161D03*
D25*
X89909958Y-78512595D03*
X101607749Y-79697574D03*
%TD*%
D11*
%TO.C,S2*%
X70280497Y-86202679D03*
D12*
X70451760Y-82423371D03*
X75240991Y-79795964D03*
X75240991Y-79795964D03*
D13*
X75759568Y-85723322D03*
D12*
X80413707Y-81551813D03*
D11*
X81238639Y-85243965D03*
D25*
X71978454Y-80081399D03*
X83676245Y-81266378D03*
%TD*%
D11*
%TO.C,S21*%
X145228557Y-94135314D03*
D12*
X146497300Y-90571216D03*
X151845444Y-89458850D03*
X151845444Y-89458850D03*
D13*
X150608369Y-95278828D03*
D12*
X156278776Y-92650333D03*
D11*
X155988181Y-96422342D03*
D35*
X148642010Y-88777939D03*
X159482209Y-93331244D03*
%TD*%
D20*
%TO.C,D9*%
X107683929Y-59639194D03*
D21*
X109843929Y-59639194D03*
X113143929Y-59639194D03*
D17*
X115303929Y-59639194D03*
%TD*%
D23*
%TO.C,_6*%
X176693433Y-119542888D03*
X177770194Y-118883049D03*
X176398626Y-120770851D03*
X178998157Y-119177856D03*
D24*
X178028311Y-120512734D03*
D23*
X177058465Y-121847612D03*
X179657996Y-120254617D03*
X178286428Y-122142419D03*
X179363189Y-121482580D03*
%TD*%
D20*
%TO.C,D20*%
X125683929Y-97639194D03*
D21*
X127843929Y-97639194D03*
X131143929Y-97639194D03*
D17*
X133303929Y-97639194D03*
%TD*%
D11*
%TO.C,S13*%
X123993929Y-32639194D03*
D12*
X124493929Y-28889194D03*
X129493929Y-26689194D03*
X129493929Y-26689194D03*
D13*
X129493929Y-32639194D03*
D12*
X134493929Y-28889194D03*
D11*
X134993929Y-32639194D03*
D14*
X126218929Y-26689194D03*
X137768929Y-28889194D03*
%TD*%
D36*
%TO.C,D22*%
X165198305Y-105268779D03*
D37*
X167171563Y-106147331D03*
X170186263Y-107489561D03*
D17*
X172159521Y-108368113D03*
%TD*%
D20*
%TO.C,D10*%
X107683929Y-42639194D03*
D21*
X109843929Y-42639194D03*
X113143929Y-42639194D03*
D17*
X115303929Y-42639194D03*
%TD*%
D11*
%TO.C,S15*%
X141993929Y-55639195D03*
D12*
X142493929Y-51889195D03*
X147493929Y-49689195D03*
X147493929Y-49689195D03*
D13*
X147493929Y-55639195D03*
D12*
X152493929Y-51889195D03*
D11*
X152993929Y-55639195D03*
D14*
X144218929Y-49689195D03*
X155768929Y-51889195D03*
%TD*%
D11*
%TO.C,S12*%
X123993929Y-49639195D03*
D12*
X124493929Y-45889195D03*
X129493929Y-43689195D03*
X129493929Y-43689195D03*
D13*
X129493929Y-49639195D03*
D12*
X134493929Y-45889195D03*
D11*
X134993929Y-49639195D03*
D14*
X126218929Y-43689195D03*
X137768929Y-45889195D03*
%TD*%
M02*
