M48
; DRILL file {KiCad 7.0.10} date Sun Feb 18 22:51:35 2024
; FORMAT={-:-/ absolute / inch / decimal}
; #@! TF.CreationDate,2024-02-18T22:51:35+03:00
; #@! TF.GenerationSoftware,Kicad,Pcbnew,7.0.10
; #@! TF.FileFunction,Plated,1,2,PTH
FMAT,2
INCH
; #@! TA.AperFunction,Plated,PTH,ViaDrill
T1C0.0157
; #@! TA.AperFunction,Plated,PTH,ComponentDrill
T2C0.0157
; #@! TA.AperFunction,Plated,PTH,ComponentDrill
T3C0.0354
; #@! TA.AperFunction,Plated,PTH,ComponentDrill
T4C0.0390
; #@! TA.AperFunction,Plated,PTH,ComponentDrill
T5C0.0394
; #@! TA.AperFunction,Plated,PTH,ComponentDrill
T6C0.0512
; #@! TA.AperFunction,Plated,PTH,ComponentDrill
T7C0.0866
%
G90
G05
T1
X2.2874Y-2.0748
X2.9724Y-1.6969
X3.0315Y-2.3661
X3.0906Y-3.0394
X3.6693Y-1.6378
X3.7323Y-2.3189
X3.7992Y-2.9764
X4.5157Y-1.8228
X4.5197Y-1.1457
X4.5197Y-2.4882
X5.2283Y-1.622
X5.2283Y-2.2913
X5.2283Y-3.3189
X5.2323Y-0.9567
X5.937Y-1.1811
X5.9409Y-1.8583
X5.9409Y-2.5276
X6.1299Y-3.4449
X6.6417Y-1.2638
X6.6417Y-2.6024
X6.6457Y-1.9331
X6.9843Y-3.7717
X7.0906Y-3.6654
X7.1654Y-3.7874
X7.2047Y-3.8189
X7.2441Y-3.8583
X7.2835Y-3.4646
X7.2835Y-3.8976
X7.3228Y-3.937
X7.7165Y-2.3228
X7.7559Y-4.2441
T2
X2.2521Y-1.9134
X2.2671Y-1.8659
X2.2751Y-1.9575
X2.3112Y-1.843
X2.3225Y-1.9724
X2.3586Y-1.8579
X2.3666Y-1.9495
X2.3815Y-1.902
X2.3885Y-3.4269
X2.4034Y-3.3795
X2.4114Y-3.471
X2.4475Y-3.3565
X2.4588Y-3.486
X2.4949Y-3.3715
X2.5029Y-3.463
X2.5179Y-3.4156
X4.5017Y-3.6472
X4.5208Y-3.6013
X4.5208Y-3.6931
X4.5667Y-3.5823
X4.5667Y-3.7122
X4.6126Y-3.6013
X4.6126Y-3.6931
X4.6317Y-3.6472
X4.6789Y-2.2889
X4.6979Y-2.243
X4.6979Y-2.3349
X4.7439Y-2.224
X4.7439Y-2.3539
X4.7898Y-2.243
X4.7898Y-2.3349
X4.8088Y-2.2889
X5.5687Y-1.0252
X5.5877Y-0.9792
X5.5877Y-1.0711
X5.6336Y-0.9602
X5.6336Y-1.0901
X5.6796Y-0.9792
X5.6796Y-1.0711
X5.6986Y-1.0252
X6.8049Y-1.9346
X6.8239Y-1.8887
X6.8239Y-1.9805
X6.8698Y-1.8697
X6.8698Y-1.9996
X6.9158Y-1.8887
X6.9158Y-1.9805
X6.9348Y-1.9346
X6.9448Y-4.7548
X6.9564Y-4.7064
X6.9708Y-4.7972
X6.9988Y-4.6804
X7.0192Y-4.8088
X7.0472Y-4.692
X7.0615Y-4.7828
X7.0731Y-4.7344
X7.1691Y-2.2417
X7.1691Y-2.3417
X7.1691Y-2.4417
X7.1691Y-2.5417
X7.1691Y-2.6417
X7.1691Y-2.7417
X7.1691Y-2.8417
X7.1691Y-2.9417
X7.1691Y-3.0417
X7.1691Y-3.1417
X7.1691Y-3.2417
X7.1691Y-3.3417
X7.4368Y-2.2417
X7.4368Y-2.3417
X7.4368Y-2.4417
X7.4368Y-2.5417
X7.4368Y-2.6417
X7.4368Y-2.7417
X7.4368Y-2.8417
X7.4368Y-2.9417
X7.4368Y-3.0417
X7.4368Y-3.1417
X7.4368Y-3.2417
X7.4368Y-3.3417
T4
X2.0552Y-2.6261
X2.3541Y-2.6
X2.7337Y-2.2506
X2.7921Y-2.9174
X2.8504Y-3.5841
X3.0326Y-2.2245
X3.0909Y-2.8912
X3.1492Y-3.558
X3.4397Y-2.1889
X3.498Y-2.8556
X3.5564Y-3.5223
X3.7385Y-2.1627
X3.7969Y-2.8295
X3.8552Y-3.4962
X4.2395Y-1.6787
X4.2395Y-2.348
X4.2395Y-3.0173
X4.5395Y-1.6787
X4.5395Y-2.348
X4.5395Y-3.0173
X4.9482Y-1.4819
X4.9482Y-2.1511
X4.9482Y-2.8204
X4.9482Y-3.8441
X5.2482Y-1.4819
X5.2482Y-2.1511
X5.2482Y-2.8204
X5.2482Y-3.8441
X5.6568Y-1.7181
X5.6568Y-2.3874
X5.6568Y-3.0567
X5.7418Y-3.9125
X5.9568Y-1.7181
X5.9568Y-2.3874
X5.9568Y-3.0567
X6.0353Y-3.9749
X6.3655Y-1.7968
X6.3655Y-2.4661
X6.3655Y-3.1354
X6.5039Y-4.1444
X6.6655Y-1.7968
X6.6655Y-2.4661
X6.6655Y-3.1354
X6.7779Y-4.2665
X7.2103Y-4.5137
X7.453Y-4.6901
T5
X7.0029Y-2.2417
X7.0029Y-2.3417
X7.0029Y-2.4417
X7.0029Y-2.5417
X7.0029Y-2.6417
X7.0029Y-2.7417
X7.0029Y-2.8417
X7.0029Y-2.9417
X7.0029Y-3.0417
X7.0029Y-3.1417
X7.0029Y-3.2417
X7.0029Y-3.3417
X7.6029Y-2.2417
X7.6029Y-2.3417
X7.6029Y-2.4417
X7.6029Y-2.5417
X7.6029Y-2.6417
X7.6029Y-2.7417
X7.6029Y-2.8417
X7.6029Y-2.9417
X7.6029Y-3.0417
X7.6029Y-3.1417
X7.6029Y-3.2417
X7.6029Y-3.3417
T6
X7.7083Y-3.8658
X7.9154Y-4.0162
T7
X2.3168Y-1.9077
X2.4532Y-3.4213
X4.5667Y-3.6472
X4.7439Y-2.2889
X5.6336Y-1.0252
X6.8698Y-1.9346
X7.009Y-4.7446
T3
G00X7.4894Y-3.5008
M15
G01X7.4227Y-3.5066
M16
G05
G00X7.5052Y-3.6812
M15
G01X7.4385Y-3.687
M16
G05
G00X7.6463Y-3.487
M15
G01X7.6227Y-3.4891
M16
G05
G00X7.6621Y-3.6675
M15
G01X7.6385Y-3.6695
M16
G05
G00X7.7639Y-3.4768
M15
G01X7.7404Y-3.4788
M16
G05
G00X7.7797Y-3.6572
M15
G01X7.7562Y-3.6592
M16
G05
M30
