%TF.GenerationSoftware,KiCad,Pcbnew,7.0.10*%
%TF.CreationDate,2024-02-18T22:51:37+03:00*%
%TF.ProjectId,jcuken_1,6a63756b-656e-45f3-912e-6b696361645f,0.1*%
%TF.SameCoordinates,Original*%
%TF.FileFunction,Legend,Top*%
%TF.FilePolarity,Positive*%
%FSLAX46Y46*%
G04 Gerber Fmt 4.6, Leading zero omitted, Abs format (unit mm)*
G04 Created by KiCad (PCBNEW 7.0.10) date 2024-02-18 22:51:37*
%MOMM*%
%LPD*%
G01*
G04 APERTURE LIST*
%ADD10C,0.150000*%
%ADD11C,0.100000*%
%ADD12C,0.120000*%
%ADD13C,2.000000*%
G04 APERTURE END LIST*
D10*
X196978431Y-99615052D02*
X196988656Y-99033877D01*
X196516135Y-99279174D02*
X197103920Y-98470157D01*
X197103920Y-98470157D02*
X197412117Y-98694076D01*
X197412117Y-98694076D02*
X197461177Y-98788580D01*
X197461177Y-98788580D02*
X197471712Y-98855094D01*
X197471712Y-98855094D02*
X197454257Y-98960133D01*
X197454257Y-98960133D02*
X197370287Y-99075707D01*
X197370287Y-99075707D02*
X197275783Y-99124766D01*
X197275783Y-99124766D02*
X197209269Y-99135301D01*
X197209269Y-99135301D02*
X197104230Y-99117846D01*
X197104230Y-99117846D02*
X196796033Y-98893928D01*
X197633040Y-99443189D02*
X197902712Y-99639117D01*
X197710398Y-100146857D02*
X197325152Y-99866960D01*
X197325152Y-99866960D02*
X197912937Y-99057943D01*
X197912937Y-99057943D02*
X198298184Y-99337840D01*
X198046585Y-100332251D02*
X198134169Y-100454745D01*
X198134169Y-100454745D02*
X198326792Y-100594694D01*
X198326792Y-100594694D02*
X198431831Y-100612149D01*
X198431831Y-100612149D02*
X198498346Y-100601614D01*
X198498346Y-100601614D02*
X198592850Y-100552554D01*
X198592850Y-100552554D02*
X198648829Y-100475505D01*
X198648829Y-100475505D02*
X198666284Y-100370466D01*
X198666284Y-100370466D02*
X198655749Y-100303952D01*
X198655749Y-100303952D02*
X198606690Y-100209448D01*
X198606690Y-100209448D02*
X198480581Y-100058964D01*
X198480581Y-100058964D02*
X198431522Y-99964460D01*
X198431522Y-99964460D02*
X198420987Y-99897945D01*
X198420987Y-99897945D02*
X198438442Y-99792906D01*
X198438442Y-99792906D02*
X198494421Y-99715857D01*
X198494421Y-99715857D02*
X198588926Y-99666798D01*
X198588926Y-99666798D02*
X198655440Y-99656263D01*
X198655440Y-99656263D02*
X198760479Y-99673718D01*
X198760479Y-99673718D02*
X198953102Y-99813667D01*
X198953102Y-99813667D02*
X199040686Y-99936160D01*
X199135500Y-100534790D02*
X199405172Y-100730718D01*
X199212859Y-101238459D02*
X198827612Y-100958561D01*
X198827612Y-100958561D02*
X199415398Y-100149544D01*
X199415398Y-100149544D02*
X199800644Y-100429442D01*
X200031792Y-100597380D02*
X200494087Y-100933258D01*
X199675154Y-101574336D02*
X200262939Y-100765319D01*
X182830708Y-72634014D02*
X182830708Y-71634014D01*
X182830708Y-71634014D02*
X183211660Y-71634014D01*
X183211660Y-71634014D02*
X183306898Y-71681633D01*
X183306898Y-71681633D02*
X183354517Y-71729252D01*
X183354517Y-71729252D02*
X183402136Y-71824490D01*
X183402136Y-71824490D02*
X183402136Y-71967347D01*
X183402136Y-71967347D02*
X183354517Y-72062585D01*
X183354517Y-72062585D02*
X183306898Y-72110204D01*
X183306898Y-72110204D02*
X183211660Y-72157823D01*
X183211660Y-72157823D02*
X182830708Y-72157823D01*
X184259279Y-71967347D02*
X184259279Y-72634014D01*
X184021184Y-71586395D02*
X183783089Y-72300680D01*
X183783089Y-72300680D02*
X184402136Y-72300680D01*
X182830708Y-67554014D02*
X182830708Y-66554014D01*
X182830708Y-66554014D02*
X183211660Y-66554014D01*
X183211660Y-66554014D02*
X183306898Y-66601633D01*
X183306898Y-66601633D02*
X183354517Y-66649252D01*
X183354517Y-66649252D02*
X183402136Y-66744490D01*
X183402136Y-66744490D02*
X183402136Y-66887347D01*
X183402136Y-66887347D02*
X183354517Y-66982585D01*
X183354517Y-66982585D02*
X183306898Y-67030204D01*
X183306898Y-67030204D02*
X183211660Y-67077823D01*
X183211660Y-67077823D02*
X182830708Y-67077823D01*
X183783089Y-66649252D02*
X183830708Y-66601633D01*
X183830708Y-66601633D02*
X183925946Y-66554014D01*
X183925946Y-66554014D02*
X184164041Y-66554014D01*
X184164041Y-66554014D02*
X184259279Y-66601633D01*
X184259279Y-66601633D02*
X184306898Y-66649252D01*
X184306898Y-66649252D02*
X184354517Y-66744490D01*
X184354517Y-66744490D02*
X184354517Y-66839728D01*
X184354517Y-66839728D02*
X184306898Y-66982585D01*
X184306898Y-66982585D02*
X183735470Y-67554014D01*
X183735470Y-67554014D02*
X184354517Y-67554014D01*
X183354517Y-64061633D02*
X183259279Y-64014014D01*
X183259279Y-64014014D02*
X183116422Y-64014014D01*
X183116422Y-64014014D02*
X182973565Y-64061633D01*
X182973565Y-64061633D02*
X182878327Y-64156871D01*
X182878327Y-64156871D02*
X182830708Y-64252109D01*
X182830708Y-64252109D02*
X182783089Y-64442585D01*
X182783089Y-64442585D02*
X182783089Y-64585442D01*
X182783089Y-64585442D02*
X182830708Y-64775918D01*
X182830708Y-64775918D02*
X182878327Y-64871156D01*
X182878327Y-64871156D02*
X182973565Y-64966395D01*
X182973565Y-64966395D02*
X183116422Y-65014014D01*
X183116422Y-65014014D02*
X183211660Y-65014014D01*
X183211660Y-65014014D02*
X183354517Y-64966395D01*
X183354517Y-64966395D02*
X183402136Y-64918775D01*
X183402136Y-64918775D02*
X183402136Y-64585442D01*
X183402136Y-64585442D02*
X183211660Y-64585442D01*
X183830708Y-65014014D02*
X183830708Y-64014014D01*
X183830708Y-64014014D02*
X184402136Y-65014014D01*
X184402136Y-65014014D02*
X184402136Y-64014014D01*
X184878327Y-65014014D02*
X184878327Y-64014014D01*
X184878327Y-64014014D02*
X185116422Y-64014014D01*
X185116422Y-64014014D02*
X185259279Y-64061633D01*
X185259279Y-64061633D02*
X185354517Y-64156871D01*
X185354517Y-64156871D02*
X185402136Y-64252109D01*
X185402136Y-64252109D02*
X185449755Y-64442585D01*
X185449755Y-64442585D02*
X185449755Y-64585442D01*
X185449755Y-64585442D02*
X185402136Y-64775918D01*
X185402136Y-64775918D02*
X185354517Y-64871156D01*
X185354517Y-64871156D02*
X185259279Y-64966395D01*
X185259279Y-64966395D02*
X185116422Y-65014014D01*
X185116422Y-65014014D02*
X184878327Y-65014014D01*
X185728578Y-77714014D02*
X185728578Y-76714014D01*
X185728578Y-76714014D02*
X186109530Y-76714014D01*
X186109530Y-76714014D02*
X186204768Y-76761633D01*
X186204768Y-76761633D02*
X186252387Y-76809252D01*
X186252387Y-76809252D02*
X186300006Y-76904490D01*
X186300006Y-76904490D02*
X186300006Y-77047347D01*
X186300006Y-77047347D02*
X186252387Y-77142585D01*
X186252387Y-77142585D02*
X186204768Y-77190204D01*
X186204768Y-77190204D02*
X186109530Y-77237823D01*
X186109530Y-77237823D02*
X185728578Y-77237823D01*
X187252387Y-77714014D02*
X186680959Y-77714014D01*
X186966673Y-77714014D02*
X186966673Y-76714014D01*
X186966673Y-76714014D02*
X186871435Y-76856871D01*
X186871435Y-76856871D02*
X186776197Y-76952109D01*
X186776197Y-76952109D02*
X186680959Y-76999728D01*
X188157149Y-76714014D02*
X187680959Y-76714014D01*
X187680959Y-76714014D02*
X187633340Y-77190204D01*
X187633340Y-77190204D02*
X187680959Y-77142585D01*
X187680959Y-77142585D02*
X187776197Y-77094966D01*
X187776197Y-77094966D02*
X188014292Y-77094966D01*
X188014292Y-77094966D02*
X188109530Y-77142585D01*
X188109530Y-77142585D02*
X188157149Y-77190204D01*
X188157149Y-77190204D02*
X188204768Y-77285442D01*
X188204768Y-77285442D02*
X188204768Y-77523537D01*
X188204768Y-77523537D02*
X188157149Y-77618775D01*
X188157149Y-77618775D02*
X188109530Y-77666395D01*
X188109530Y-77666395D02*
X188014292Y-77714014D01*
X188014292Y-77714014D02*
X187776197Y-77714014D01*
X187776197Y-77714014D02*
X187680959Y-77666395D01*
X187680959Y-77666395D02*
X187633340Y-77618775D01*
X185728578Y-72634014D02*
X185728578Y-71634014D01*
X185728578Y-71634014D02*
X186109530Y-71634014D01*
X186109530Y-71634014D02*
X186204768Y-71681633D01*
X186204768Y-71681633D02*
X186252387Y-71729252D01*
X186252387Y-71729252D02*
X186300006Y-71824490D01*
X186300006Y-71824490D02*
X186300006Y-71967347D01*
X186300006Y-71967347D02*
X186252387Y-72062585D01*
X186252387Y-72062585D02*
X186204768Y-72110204D01*
X186204768Y-72110204D02*
X186109530Y-72157823D01*
X186109530Y-72157823D02*
X185728578Y-72157823D01*
X187252387Y-72634014D02*
X186680959Y-72634014D01*
X186966673Y-72634014D02*
X186966673Y-71634014D01*
X186966673Y-71634014D02*
X186871435Y-71776871D01*
X186871435Y-71776871D02*
X186776197Y-71872109D01*
X186776197Y-71872109D02*
X186680959Y-71919728D01*
X187728578Y-72634014D02*
X187919054Y-72634014D01*
X187919054Y-72634014D02*
X188014292Y-72586395D01*
X188014292Y-72586395D02*
X188061911Y-72538775D01*
X188061911Y-72538775D02*
X188157149Y-72395918D01*
X188157149Y-72395918D02*
X188204768Y-72205442D01*
X188204768Y-72205442D02*
X188204768Y-71824490D01*
X188204768Y-71824490D02*
X188157149Y-71729252D01*
X188157149Y-71729252D02*
X188109530Y-71681633D01*
X188109530Y-71681633D02*
X188014292Y-71634014D01*
X188014292Y-71634014D02*
X187823816Y-71634014D01*
X187823816Y-71634014D02*
X187728578Y-71681633D01*
X187728578Y-71681633D02*
X187680959Y-71729252D01*
X187680959Y-71729252D02*
X187633340Y-71824490D01*
X187633340Y-71824490D02*
X187633340Y-72062585D01*
X187633340Y-72062585D02*
X187680959Y-72157823D01*
X187680959Y-72157823D02*
X187728578Y-72205442D01*
X187728578Y-72205442D02*
X187823816Y-72253061D01*
X187823816Y-72253061D02*
X188014292Y-72253061D01*
X188014292Y-72253061D02*
X188109530Y-72205442D01*
X188109530Y-72205442D02*
X188157149Y-72157823D01*
X188157149Y-72157823D02*
X188204768Y-72062585D01*
X185728578Y-67554014D02*
X185728578Y-66554014D01*
X185728578Y-66554014D02*
X186109530Y-66554014D01*
X186109530Y-66554014D02*
X186204768Y-66601633D01*
X186204768Y-66601633D02*
X186252387Y-66649252D01*
X186252387Y-66649252D02*
X186300006Y-66744490D01*
X186300006Y-66744490D02*
X186300006Y-66887347D01*
X186300006Y-66887347D02*
X186252387Y-66982585D01*
X186252387Y-66982585D02*
X186204768Y-67030204D01*
X186204768Y-67030204D02*
X186109530Y-67077823D01*
X186109530Y-67077823D02*
X185728578Y-67077823D01*
X186680959Y-66649252D02*
X186728578Y-66601633D01*
X186728578Y-66601633D02*
X186823816Y-66554014D01*
X186823816Y-66554014D02*
X187061911Y-66554014D01*
X187061911Y-66554014D02*
X187157149Y-66601633D01*
X187157149Y-66601633D02*
X187204768Y-66649252D01*
X187204768Y-66649252D02*
X187252387Y-66744490D01*
X187252387Y-66744490D02*
X187252387Y-66839728D01*
X187252387Y-66839728D02*
X187204768Y-66982585D01*
X187204768Y-66982585D02*
X186633340Y-67554014D01*
X186633340Y-67554014D02*
X187252387Y-67554014D01*
X188204768Y-67554014D02*
X187633340Y-67554014D01*
X187919054Y-67554014D02*
X187919054Y-66554014D01*
X187919054Y-66554014D02*
X187823816Y-66696871D01*
X187823816Y-66696871D02*
X187728578Y-66792109D01*
X187728578Y-66792109D02*
X187633340Y-66839728D01*
X182830708Y-82794014D02*
X182830708Y-81794014D01*
X182830708Y-81794014D02*
X183211660Y-81794014D01*
X183211660Y-81794014D02*
X183306898Y-81841633D01*
X183306898Y-81841633D02*
X183354517Y-81889252D01*
X183354517Y-81889252D02*
X183402136Y-81984490D01*
X183402136Y-81984490D02*
X183402136Y-82127347D01*
X183402136Y-82127347D02*
X183354517Y-82222585D01*
X183354517Y-82222585D02*
X183306898Y-82270204D01*
X183306898Y-82270204D02*
X183211660Y-82317823D01*
X183211660Y-82317823D02*
X182830708Y-82317823D01*
X183973565Y-82222585D02*
X183878327Y-82174966D01*
X183878327Y-82174966D02*
X183830708Y-82127347D01*
X183830708Y-82127347D02*
X183783089Y-82032109D01*
X183783089Y-82032109D02*
X183783089Y-81984490D01*
X183783089Y-81984490D02*
X183830708Y-81889252D01*
X183830708Y-81889252D02*
X183878327Y-81841633D01*
X183878327Y-81841633D02*
X183973565Y-81794014D01*
X183973565Y-81794014D02*
X184164041Y-81794014D01*
X184164041Y-81794014D02*
X184259279Y-81841633D01*
X184259279Y-81841633D02*
X184306898Y-81889252D01*
X184306898Y-81889252D02*
X184354517Y-81984490D01*
X184354517Y-81984490D02*
X184354517Y-82032109D01*
X184354517Y-82032109D02*
X184306898Y-82127347D01*
X184306898Y-82127347D02*
X184259279Y-82174966D01*
X184259279Y-82174966D02*
X184164041Y-82222585D01*
X184164041Y-82222585D02*
X183973565Y-82222585D01*
X183973565Y-82222585D02*
X183878327Y-82270204D01*
X183878327Y-82270204D02*
X183830708Y-82317823D01*
X183830708Y-82317823D02*
X183783089Y-82413061D01*
X183783089Y-82413061D02*
X183783089Y-82603537D01*
X183783089Y-82603537D02*
X183830708Y-82698775D01*
X183830708Y-82698775D02*
X183878327Y-82746395D01*
X183878327Y-82746395D02*
X183973565Y-82794014D01*
X183973565Y-82794014D02*
X184164041Y-82794014D01*
X184164041Y-82794014D02*
X184259279Y-82746395D01*
X184259279Y-82746395D02*
X184306898Y-82698775D01*
X184306898Y-82698775D02*
X184354517Y-82603537D01*
X184354517Y-82603537D02*
X184354517Y-82413061D01*
X184354517Y-82413061D02*
X184306898Y-82317823D01*
X184306898Y-82317823D02*
X184259279Y-82270204D01*
X184259279Y-82270204D02*
X184164041Y-82222585D01*
X186490482Y-62474014D02*
X186157149Y-61997823D01*
X185919054Y-62474014D02*
X185919054Y-61474014D01*
X185919054Y-61474014D02*
X186300006Y-61474014D01*
X186300006Y-61474014D02*
X186395244Y-61521633D01*
X186395244Y-61521633D02*
X186442863Y-61569252D01*
X186442863Y-61569252D02*
X186490482Y-61664490D01*
X186490482Y-61664490D02*
X186490482Y-61807347D01*
X186490482Y-61807347D02*
X186442863Y-61902585D01*
X186442863Y-61902585D02*
X186395244Y-61950204D01*
X186395244Y-61950204D02*
X186300006Y-61997823D01*
X186300006Y-61997823D02*
X185919054Y-61997823D01*
X186871435Y-62426395D02*
X187014292Y-62474014D01*
X187014292Y-62474014D02*
X187252387Y-62474014D01*
X187252387Y-62474014D02*
X187347625Y-62426395D01*
X187347625Y-62426395D02*
X187395244Y-62378775D01*
X187395244Y-62378775D02*
X187442863Y-62283537D01*
X187442863Y-62283537D02*
X187442863Y-62188299D01*
X187442863Y-62188299D02*
X187395244Y-62093061D01*
X187395244Y-62093061D02*
X187347625Y-62045442D01*
X187347625Y-62045442D02*
X187252387Y-61997823D01*
X187252387Y-61997823D02*
X187061911Y-61950204D01*
X187061911Y-61950204D02*
X186966673Y-61902585D01*
X186966673Y-61902585D02*
X186919054Y-61854966D01*
X186919054Y-61854966D02*
X186871435Y-61759728D01*
X186871435Y-61759728D02*
X186871435Y-61664490D01*
X186871435Y-61664490D02*
X186919054Y-61569252D01*
X186919054Y-61569252D02*
X186966673Y-61521633D01*
X186966673Y-61521633D02*
X187061911Y-61474014D01*
X187061911Y-61474014D02*
X187300006Y-61474014D01*
X187300006Y-61474014D02*
X187442863Y-61521633D01*
X187728578Y-61474014D02*
X188300006Y-61474014D01*
X188014292Y-62474014D02*
X188014292Y-61474014D01*
X185728578Y-82794014D02*
X185728578Y-81794014D01*
X185728578Y-81794014D02*
X186109530Y-81794014D01*
X186109530Y-81794014D02*
X186204768Y-81841633D01*
X186204768Y-81841633D02*
X186252387Y-81889252D01*
X186252387Y-81889252D02*
X186300006Y-81984490D01*
X186300006Y-81984490D02*
X186300006Y-82127347D01*
X186300006Y-82127347D02*
X186252387Y-82222585D01*
X186252387Y-82222585D02*
X186204768Y-82270204D01*
X186204768Y-82270204D02*
X186109530Y-82317823D01*
X186109530Y-82317823D02*
X185728578Y-82317823D01*
X187252387Y-82794014D02*
X186680959Y-82794014D01*
X186966673Y-82794014D02*
X186966673Y-81794014D01*
X186966673Y-81794014D02*
X186871435Y-81936871D01*
X186871435Y-81936871D02*
X186776197Y-82032109D01*
X186776197Y-82032109D02*
X186680959Y-82079728D01*
X188109530Y-81794014D02*
X187919054Y-81794014D01*
X187919054Y-81794014D02*
X187823816Y-81841633D01*
X187823816Y-81841633D02*
X187776197Y-81889252D01*
X187776197Y-81889252D02*
X187680959Y-82032109D01*
X187680959Y-82032109D02*
X187633340Y-82222585D01*
X187633340Y-82222585D02*
X187633340Y-82603537D01*
X187633340Y-82603537D02*
X187680959Y-82698775D01*
X187680959Y-82698775D02*
X187728578Y-82746395D01*
X187728578Y-82746395D02*
X187823816Y-82794014D01*
X187823816Y-82794014D02*
X188014292Y-82794014D01*
X188014292Y-82794014D02*
X188109530Y-82746395D01*
X188109530Y-82746395D02*
X188157149Y-82698775D01*
X188157149Y-82698775D02*
X188204768Y-82603537D01*
X188204768Y-82603537D02*
X188204768Y-82365442D01*
X188204768Y-82365442D02*
X188157149Y-82270204D01*
X188157149Y-82270204D02*
X188109530Y-82222585D01*
X188109530Y-82222585D02*
X188014292Y-82174966D01*
X188014292Y-82174966D02*
X187823816Y-82174966D01*
X187823816Y-82174966D02*
X187728578Y-82222585D01*
X187728578Y-82222585D02*
X187680959Y-82270204D01*
X187680959Y-82270204D02*
X187633340Y-82365442D01*
X185728578Y-70094014D02*
X185728578Y-69094014D01*
X185728578Y-69094014D02*
X186109530Y-69094014D01*
X186109530Y-69094014D02*
X186204768Y-69141633D01*
X186204768Y-69141633D02*
X186252387Y-69189252D01*
X186252387Y-69189252D02*
X186300006Y-69284490D01*
X186300006Y-69284490D02*
X186300006Y-69427347D01*
X186300006Y-69427347D02*
X186252387Y-69522585D01*
X186252387Y-69522585D02*
X186204768Y-69570204D01*
X186204768Y-69570204D02*
X186109530Y-69617823D01*
X186109530Y-69617823D02*
X185728578Y-69617823D01*
X186680959Y-69189252D02*
X186728578Y-69141633D01*
X186728578Y-69141633D02*
X186823816Y-69094014D01*
X186823816Y-69094014D02*
X187061911Y-69094014D01*
X187061911Y-69094014D02*
X187157149Y-69141633D01*
X187157149Y-69141633D02*
X187204768Y-69189252D01*
X187204768Y-69189252D02*
X187252387Y-69284490D01*
X187252387Y-69284490D02*
X187252387Y-69379728D01*
X187252387Y-69379728D02*
X187204768Y-69522585D01*
X187204768Y-69522585D02*
X186633340Y-70094014D01*
X186633340Y-70094014D02*
X187252387Y-70094014D01*
X187871435Y-69094014D02*
X187966673Y-69094014D01*
X187966673Y-69094014D02*
X188061911Y-69141633D01*
X188061911Y-69141633D02*
X188109530Y-69189252D01*
X188109530Y-69189252D02*
X188157149Y-69284490D01*
X188157149Y-69284490D02*
X188204768Y-69474966D01*
X188204768Y-69474966D02*
X188204768Y-69713061D01*
X188204768Y-69713061D02*
X188157149Y-69903537D01*
X188157149Y-69903537D02*
X188109530Y-69998775D01*
X188109530Y-69998775D02*
X188061911Y-70046395D01*
X188061911Y-70046395D02*
X187966673Y-70094014D01*
X187966673Y-70094014D02*
X187871435Y-70094014D01*
X187871435Y-70094014D02*
X187776197Y-70046395D01*
X187776197Y-70046395D02*
X187728578Y-69998775D01*
X187728578Y-69998775D02*
X187680959Y-69903537D01*
X187680959Y-69903537D02*
X187633340Y-69713061D01*
X187633340Y-69713061D02*
X187633340Y-69474966D01*
X187633340Y-69474966D02*
X187680959Y-69284490D01*
X187680959Y-69284490D02*
X187728578Y-69189252D01*
X187728578Y-69189252D02*
X187776197Y-69141633D01*
X187776197Y-69141633D02*
X187871435Y-69094014D01*
X182830708Y-77714014D02*
X182830708Y-76714014D01*
X182830708Y-76714014D02*
X183211660Y-76714014D01*
X183211660Y-76714014D02*
X183306898Y-76761633D01*
X183306898Y-76761633D02*
X183354517Y-76809252D01*
X183354517Y-76809252D02*
X183402136Y-76904490D01*
X183402136Y-76904490D02*
X183402136Y-77047347D01*
X183402136Y-77047347D02*
X183354517Y-77142585D01*
X183354517Y-77142585D02*
X183306898Y-77190204D01*
X183306898Y-77190204D02*
X183211660Y-77237823D01*
X183211660Y-77237823D02*
X182830708Y-77237823D01*
X184259279Y-76714014D02*
X184068803Y-76714014D01*
X184068803Y-76714014D02*
X183973565Y-76761633D01*
X183973565Y-76761633D02*
X183925946Y-76809252D01*
X183925946Y-76809252D02*
X183830708Y-76952109D01*
X183830708Y-76952109D02*
X183783089Y-77142585D01*
X183783089Y-77142585D02*
X183783089Y-77523537D01*
X183783089Y-77523537D02*
X183830708Y-77618775D01*
X183830708Y-77618775D02*
X183878327Y-77666395D01*
X183878327Y-77666395D02*
X183973565Y-77714014D01*
X183973565Y-77714014D02*
X184164041Y-77714014D01*
X184164041Y-77714014D02*
X184259279Y-77666395D01*
X184259279Y-77666395D02*
X184306898Y-77618775D01*
X184306898Y-77618775D02*
X184354517Y-77523537D01*
X184354517Y-77523537D02*
X184354517Y-77285442D01*
X184354517Y-77285442D02*
X184306898Y-77190204D01*
X184306898Y-77190204D02*
X184259279Y-77142585D01*
X184259279Y-77142585D02*
X184164041Y-77094966D01*
X184164041Y-77094966D02*
X183973565Y-77094966D01*
X183973565Y-77094966D02*
X183878327Y-77142585D01*
X183878327Y-77142585D02*
X183830708Y-77190204D01*
X183830708Y-77190204D02*
X183783089Y-77285442D01*
X182830708Y-57394014D02*
X182830708Y-56394014D01*
X182830708Y-56394014D02*
X183211660Y-56394014D01*
X183211660Y-56394014D02*
X183306898Y-56441633D01*
X183306898Y-56441633D02*
X183354517Y-56489252D01*
X183354517Y-56489252D02*
X183402136Y-56584490D01*
X183402136Y-56584490D02*
X183402136Y-56727347D01*
X183402136Y-56727347D02*
X183354517Y-56822585D01*
X183354517Y-56822585D02*
X183306898Y-56870204D01*
X183306898Y-56870204D02*
X183211660Y-56917823D01*
X183211660Y-56917823D02*
X182830708Y-56917823D01*
X184354517Y-57394014D02*
X183783089Y-57394014D01*
X184068803Y-57394014D02*
X184068803Y-56394014D01*
X184068803Y-56394014D02*
X183973565Y-56536871D01*
X183973565Y-56536871D02*
X183878327Y-56632109D01*
X183878327Y-56632109D02*
X183783089Y-56679728D01*
X182830708Y-75174014D02*
X182830708Y-74174014D01*
X182830708Y-74174014D02*
X183211660Y-74174014D01*
X183211660Y-74174014D02*
X183306898Y-74221633D01*
X183306898Y-74221633D02*
X183354517Y-74269252D01*
X183354517Y-74269252D02*
X183402136Y-74364490D01*
X183402136Y-74364490D02*
X183402136Y-74507347D01*
X183402136Y-74507347D02*
X183354517Y-74602585D01*
X183354517Y-74602585D02*
X183306898Y-74650204D01*
X183306898Y-74650204D02*
X183211660Y-74697823D01*
X183211660Y-74697823D02*
X182830708Y-74697823D01*
X184306898Y-74174014D02*
X183830708Y-74174014D01*
X183830708Y-74174014D02*
X183783089Y-74650204D01*
X183783089Y-74650204D02*
X183830708Y-74602585D01*
X183830708Y-74602585D02*
X183925946Y-74554966D01*
X183925946Y-74554966D02*
X184164041Y-74554966D01*
X184164041Y-74554966D02*
X184259279Y-74602585D01*
X184259279Y-74602585D02*
X184306898Y-74650204D01*
X184306898Y-74650204D02*
X184354517Y-74745442D01*
X184354517Y-74745442D02*
X184354517Y-74983537D01*
X184354517Y-74983537D02*
X184306898Y-75078775D01*
X184306898Y-75078775D02*
X184259279Y-75126395D01*
X184259279Y-75126395D02*
X184164041Y-75174014D01*
X184164041Y-75174014D02*
X183925946Y-75174014D01*
X183925946Y-75174014D02*
X183830708Y-75126395D01*
X183830708Y-75126395D02*
X183783089Y-75078775D01*
X185728578Y-80254014D02*
X185728578Y-79254014D01*
X185728578Y-79254014D02*
X186109530Y-79254014D01*
X186109530Y-79254014D02*
X186204768Y-79301633D01*
X186204768Y-79301633D02*
X186252387Y-79349252D01*
X186252387Y-79349252D02*
X186300006Y-79444490D01*
X186300006Y-79444490D02*
X186300006Y-79587347D01*
X186300006Y-79587347D02*
X186252387Y-79682585D01*
X186252387Y-79682585D02*
X186204768Y-79730204D01*
X186204768Y-79730204D02*
X186109530Y-79777823D01*
X186109530Y-79777823D02*
X185728578Y-79777823D01*
X187252387Y-80254014D02*
X186680959Y-80254014D01*
X186966673Y-80254014D02*
X186966673Y-79254014D01*
X186966673Y-79254014D02*
X186871435Y-79396871D01*
X186871435Y-79396871D02*
X186776197Y-79492109D01*
X186776197Y-79492109D02*
X186680959Y-79539728D01*
X188109530Y-79587347D02*
X188109530Y-80254014D01*
X187871435Y-79206395D02*
X187633340Y-79920680D01*
X187633340Y-79920680D02*
X188252387Y-79920680D01*
X185728578Y-75174014D02*
X185728578Y-74174014D01*
X185728578Y-74174014D02*
X186109530Y-74174014D01*
X186109530Y-74174014D02*
X186204768Y-74221633D01*
X186204768Y-74221633D02*
X186252387Y-74269252D01*
X186252387Y-74269252D02*
X186300006Y-74364490D01*
X186300006Y-74364490D02*
X186300006Y-74507347D01*
X186300006Y-74507347D02*
X186252387Y-74602585D01*
X186252387Y-74602585D02*
X186204768Y-74650204D01*
X186204768Y-74650204D02*
X186109530Y-74697823D01*
X186109530Y-74697823D02*
X185728578Y-74697823D01*
X187252387Y-75174014D02*
X186680959Y-75174014D01*
X186966673Y-75174014D02*
X186966673Y-74174014D01*
X186966673Y-74174014D02*
X186871435Y-74316871D01*
X186871435Y-74316871D02*
X186776197Y-74412109D01*
X186776197Y-74412109D02*
X186680959Y-74459728D01*
X187823816Y-74602585D02*
X187728578Y-74554966D01*
X187728578Y-74554966D02*
X187680959Y-74507347D01*
X187680959Y-74507347D02*
X187633340Y-74412109D01*
X187633340Y-74412109D02*
X187633340Y-74364490D01*
X187633340Y-74364490D02*
X187680959Y-74269252D01*
X187680959Y-74269252D02*
X187728578Y-74221633D01*
X187728578Y-74221633D02*
X187823816Y-74174014D01*
X187823816Y-74174014D02*
X188014292Y-74174014D01*
X188014292Y-74174014D02*
X188109530Y-74221633D01*
X188109530Y-74221633D02*
X188157149Y-74269252D01*
X188157149Y-74269252D02*
X188204768Y-74364490D01*
X188204768Y-74364490D02*
X188204768Y-74412109D01*
X188204768Y-74412109D02*
X188157149Y-74507347D01*
X188157149Y-74507347D02*
X188109530Y-74554966D01*
X188109530Y-74554966D02*
X188014292Y-74602585D01*
X188014292Y-74602585D02*
X187823816Y-74602585D01*
X187823816Y-74602585D02*
X187728578Y-74650204D01*
X187728578Y-74650204D02*
X187680959Y-74697823D01*
X187680959Y-74697823D02*
X187633340Y-74793061D01*
X187633340Y-74793061D02*
X187633340Y-74983537D01*
X187633340Y-74983537D02*
X187680959Y-75078775D01*
X187680959Y-75078775D02*
X187728578Y-75126395D01*
X187728578Y-75126395D02*
X187823816Y-75174014D01*
X187823816Y-75174014D02*
X188014292Y-75174014D01*
X188014292Y-75174014D02*
X188109530Y-75126395D01*
X188109530Y-75126395D02*
X188157149Y-75078775D01*
X188157149Y-75078775D02*
X188204768Y-74983537D01*
X188204768Y-74983537D02*
X188204768Y-74793061D01*
X188204768Y-74793061D02*
X188157149Y-74697823D01*
X188157149Y-74697823D02*
X188109530Y-74650204D01*
X188109530Y-74650204D02*
X188014292Y-74602585D01*
X186204768Y-57394014D02*
X185871435Y-56917823D01*
X185633340Y-57394014D02*
X185633340Y-56394014D01*
X185633340Y-56394014D02*
X186014292Y-56394014D01*
X186014292Y-56394014D02*
X186109530Y-56441633D01*
X186109530Y-56441633D02*
X186157149Y-56489252D01*
X186157149Y-56489252D02*
X186204768Y-56584490D01*
X186204768Y-56584490D02*
X186204768Y-56727347D01*
X186204768Y-56727347D02*
X186157149Y-56822585D01*
X186157149Y-56822585D02*
X186109530Y-56870204D01*
X186109530Y-56870204D02*
X186014292Y-56917823D01*
X186014292Y-56917823D02*
X185633340Y-56917823D01*
X186585721Y-57108299D02*
X187061911Y-57108299D01*
X186490483Y-57394014D02*
X186823816Y-56394014D01*
X186823816Y-56394014D02*
X187157149Y-57394014D01*
X187395245Y-56394014D02*
X187633340Y-57394014D01*
X187633340Y-57394014D02*
X187823816Y-56679728D01*
X187823816Y-56679728D02*
X188014292Y-57394014D01*
X188014292Y-57394014D02*
X188252388Y-56394014D01*
X182830708Y-70094014D02*
X182830708Y-69094014D01*
X182830708Y-69094014D02*
X183211660Y-69094014D01*
X183211660Y-69094014D02*
X183306898Y-69141633D01*
X183306898Y-69141633D02*
X183354517Y-69189252D01*
X183354517Y-69189252D02*
X183402136Y-69284490D01*
X183402136Y-69284490D02*
X183402136Y-69427347D01*
X183402136Y-69427347D02*
X183354517Y-69522585D01*
X183354517Y-69522585D02*
X183306898Y-69570204D01*
X183306898Y-69570204D02*
X183211660Y-69617823D01*
X183211660Y-69617823D02*
X182830708Y-69617823D01*
X183735470Y-69094014D02*
X184354517Y-69094014D01*
X184354517Y-69094014D02*
X184021184Y-69474966D01*
X184021184Y-69474966D02*
X184164041Y-69474966D01*
X184164041Y-69474966D02*
X184259279Y-69522585D01*
X184259279Y-69522585D02*
X184306898Y-69570204D01*
X184306898Y-69570204D02*
X184354517Y-69665442D01*
X184354517Y-69665442D02*
X184354517Y-69903537D01*
X184354517Y-69903537D02*
X184306898Y-69998775D01*
X184306898Y-69998775D02*
X184259279Y-70046395D01*
X184259279Y-70046395D02*
X184164041Y-70094014D01*
X184164041Y-70094014D02*
X183878327Y-70094014D01*
X183878327Y-70094014D02*
X183783089Y-70046395D01*
X183783089Y-70046395D02*
X183735470Y-69998775D01*
X183354517Y-61521633D02*
X183259279Y-61474014D01*
X183259279Y-61474014D02*
X183116422Y-61474014D01*
X183116422Y-61474014D02*
X182973565Y-61521633D01*
X182973565Y-61521633D02*
X182878327Y-61616871D01*
X182878327Y-61616871D02*
X182830708Y-61712109D01*
X182830708Y-61712109D02*
X182783089Y-61902585D01*
X182783089Y-61902585D02*
X182783089Y-62045442D01*
X182783089Y-62045442D02*
X182830708Y-62235918D01*
X182830708Y-62235918D02*
X182878327Y-62331156D01*
X182878327Y-62331156D02*
X182973565Y-62426395D01*
X182973565Y-62426395D02*
X183116422Y-62474014D01*
X183116422Y-62474014D02*
X183211660Y-62474014D01*
X183211660Y-62474014D02*
X183354517Y-62426395D01*
X183354517Y-62426395D02*
X183402136Y-62378775D01*
X183402136Y-62378775D02*
X183402136Y-62045442D01*
X183402136Y-62045442D02*
X183211660Y-62045442D01*
X183830708Y-62474014D02*
X183830708Y-61474014D01*
X183830708Y-61474014D02*
X184402136Y-62474014D01*
X184402136Y-62474014D02*
X184402136Y-61474014D01*
X184878327Y-62474014D02*
X184878327Y-61474014D01*
X184878327Y-61474014D02*
X185116422Y-61474014D01*
X185116422Y-61474014D02*
X185259279Y-61521633D01*
X185259279Y-61521633D02*
X185354517Y-61616871D01*
X185354517Y-61616871D02*
X185402136Y-61712109D01*
X185402136Y-61712109D02*
X185449755Y-61902585D01*
X185449755Y-61902585D02*
X185449755Y-62045442D01*
X185449755Y-62045442D02*
X185402136Y-62235918D01*
X185402136Y-62235918D02*
X185354517Y-62331156D01*
X185354517Y-62331156D02*
X185259279Y-62426395D01*
X185259279Y-62426395D02*
X185116422Y-62474014D01*
X185116422Y-62474014D02*
X184878327Y-62474014D01*
X185633340Y-64014014D02*
X185966673Y-65014014D01*
X185966673Y-65014014D02*
X186300006Y-64014014D01*
X187204768Y-64918775D02*
X187157149Y-64966395D01*
X187157149Y-64966395D02*
X187014292Y-65014014D01*
X187014292Y-65014014D02*
X186919054Y-65014014D01*
X186919054Y-65014014D02*
X186776197Y-64966395D01*
X186776197Y-64966395D02*
X186680959Y-64871156D01*
X186680959Y-64871156D02*
X186633340Y-64775918D01*
X186633340Y-64775918D02*
X186585721Y-64585442D01*
X186585721Y-64585442D02*
X186585721Y-64442585D01*
X186585721Y-64442585D02*
X186633340Y-64252109D01*
X186633340Y-64252109D02*
X186680959Y-64156871D01*
X186680959Y-64156871D02*
X186776197Y-64061633D01*
X186776197Y-64061633D02*
X186919054Y-64014014D01*
X186919054Y-64014014D02*
X187014292Y-64014014D01*
X187014292Y-64014014D02*
X187157149Y-64061633D01*
X187157149Y-64061633D02*
X187204768Y-64109252D01*
X188204768Y-64918775D02*
X188157149Y-64966395D01*
X188157149Y-64966395D02*
X188014292Y-65014014D01*
X188014292Y-65014014D02*
X187919054Y-65014014D01*
X187919054Y-65014014D02*
X187776197Y-64966395D01*
X187776197Y-64966395D02*
X187680959Y-64871156D01*
X187680959Y-64871156D02*
X187633340Y-64775918D01*
X187633340Y-64775918D02*
X187585721Y-64585442D01*
X187585721Y-64585442D02*
X187585721Y-64442585D01*
X187585721Y-64442585D02*
X187633340Y-64252109D01*
X187633340Y-64252109D02*
X187680959Y-64156871D01*
X187680959Y-64156871D02*
X187776197Y-64061633D01*
X187776197Y-64061633D02*
X187919054Y-64014014D01*
X187919054Y-64014014D02*
X188014292Y-64014014D01*
X188014292Y-64014014D02*
X188157149Y-64061633D01*
X188157149Y-64061633D02*
X188204768Y-64109252D01*
X182830708Y-80254014D02*
X182830708Y-79254014D01*
X182830708Y-79254014D02*
X183211660Y-79254014D01*
X183211660Y-79254014D02*
X183306898Y-79301633D01*
X183306898Y-79301633D02*
X183354517Y-79349252D01*
X183354517Y-79349252D02*
X183402136Y-79444490D01*
X183402136Y-79444490D02*
X183402136Y-79587347D01*
X183402136Y-79587347D02*
X183354517Y-79682585D01*
X183354517Y-79682585D02*
X183306898Y-79730204D01*
X183306898Y-79730204D02*
X183211660Y-79777823D01*
X183211660Y-79777823D02*
X182830708Y-79777823D01*
X183735470Y-79254014D02*
X184402136Y-79254014D01*
X184402136Y-79254014D02*
X183973565Y-80254014D01*
X185728578Y-85334014D02*
X185728578Y-84334014D01*
X185728578Y-84334014D02*
X186109530Y-84334014D01*
X186109530Y-84334014D02*
X186204768Y-84381633D01*
X186204768Y-84381633D02*
X186252387Y-84429252D01*
X186252387Y-84429252D02*
X186300006Y-84524490D01*
X186300006Y-84524490D02*
X186300006Y-84667347D01*
X186300006Y-84667347D02*
X186252387Y-84762585D01*
X186252387Y-84762585D02*
X186204768Y-84810204D01*
X186204768Y-84810204D02*
X186109530Y-84857823D01*
X186109530Y-84857823D02*
X185728578Y-84857823D01*
X187252387Y-85334014D02*
X186680959Y-85334014D01*
X186966673Y-85334014D02*
X186966673Y-84334014D01*
X186966673Y-84334014D02*
X186871435Y-84476871D01*
X186871435Y-84476871D02*
X186776197Y-84572109D01*
X186776197Y-84572109D02*
X186680959Y-84619728D01*
X187871435Y-84334014D02*
X187966673Y-84334014D01*
X187966673Y-84334014D02*
X188061911Y-84381633D01*
X188061911Y-84381633D02*
X188109530Y-84429252D01*
X188109530Y-84429252D02*
X188157149Y-84524490D01*
X188157149Y-84524490D02*
X188204768Y-84714966D01*
X188204768Y-84714966D02*
X188204768Y-84953061D01*
X188204768Y-84953061D02*
X188157149Y-85143537D01*
X188157149Y-85143537D02*
X188109530Y-85238775D01*
X188109530Y-85238775D02*
X188061911Y-85286395D01*
X188061911Y-85286395D02*
X187966673Y-85334014D01*
X187966673Y-85334014D02*
X187871435Y-85334014D01*
X187871435Y-85334014D02*
X187776197Y-85286395D01*
X187776197Y-85286395D02*
X187728578Y-85238775D01*
X187728578Y-85238775D02*
X187680959Y-85143537D01*
X187680959Y-85143537D02*
X187633340Y-84953061D01*
X187633340Y-84953061D02*
X187633340Y-84714966D01*
X187633340Y-84714966D02*
X187680959Y-84524490D01*
X187680959Y-84524490D02*
X187728578Y-84429252D01*
X187728578Y-84429252D02*
X187776197Y-84381633D01*
X187776197Y-84381633D02*
X187871435Y-84334014D01*
X186109530Y-58981633D02*
X186014292Y-58934014D01*
X186014292Y-58934014D02*
X185871435Y-58934014D01*
X185871435Y-58934014D02*
X185728578Y-58981633D01*
X185728578Y-58981633D02*
X185633340Y-59076871D01*
X185633340Y-59076871D02*
X185585721Y-59172109D01*
X185585721Y-59172109D02*
X185538102Y-59362585D01*
X185538102Y-59362585D02*
X185538102Y-59505442D01*
X185538102Y-59505442D02*
X185585721Y-59695918D01*
X185585721Y-59695918D02*
X185633340Y-59791156D01*
X185633340Y-59791156D02*
X185728578Y-59886395D01*
X185728578Y-59886395D02*
X185871435Y-59934014D01*
X185871435Y-59934014D02*
X185966673Y-59934014D01*
X185966673Y-59934014D02*
X186109530Y-59886395D01*
X186109530Y-59886395D02*
X186157149Y-59838775D01*
X186157149Y-59838775D02*
X186157149Y-59505442D01*
X186157149Y-59505442D02*
X185966673Y-59505442D01*
X186585721Y-59934014D02*
X186585721Y-58934014D01*
X186585721Y-58934014D02*
X187157149Y-59934014D01*
X187157149Y-59934014D02*
X187157149Y-58934014D01*
X187633340Y-59934014D02*
X187633340Y-58934014D01*
X187633340Y-58934014D02*
X187871435Y-58934014D01*
X187871435Y-58934014D02*
X188014292Y-58981633D01*
X188014292Y-58981633D02*
X188109530Y-59076871D01*
X188109530Y-59076871D02*
X188157149Y-59172109D01*
X188157149Y-59172109D02*
X188204768Y-59362585D01*
X188204768Y-59362585D02*
X188204768Y-59505442D01*
X188204768Y-59505442D02*
X188157149Y-59695918D01*
X188157149Y-59695918D02*
X188109530Y-59791156D01*
X188109530Y-59791156D02*
X188014292Y-59886395D01*
X188014292Y-59886395D02*
X187871435Y-59934014D01*
X187871435Y-59934014D02*
X187633340Y-59934014D01*
X182830708Y-85334014D02*
X182830708Y-84334014D01*
X182830708Y-84334014D02*
X183211660Y-84334014D01*
X183211660Y-84334014D02*
X183306898Y-84381633D01*
X183306898Y-84381633D02*
X183354517Y-84429252D01*
X183354517Y-84429252D02*
X183402136Y-84524490D01*
X183402136Y-84524490D02*
X183402136Y-84667347D01*
X183402136Y-84667347D02*
X183354517Y-84762585D01*
X183354517Y-84762585D02*
X183306898Y-84810204D01*
X183306898Y-84810204D02*
X183211660Y-84857823D01*
X183211660Y-84857823D02*
X182830708Y-84857823D01*
X183878327Y-85334014D02*
X184068803Y-85334014D01*
X184068803Y-85334014D02*
X184164041Y-85286395D01*
X184164041Y-85286395D02*
X184211660Y-85238775D01*
X184211660Y-85238775D02*
X184306898Y-85095918D01*
X184306898Y-85095918D02*
X184354517Y-84905442D01*
X184354517Y-84905442D02*
X184354517Y-84524490D01*
X184354517Y-84524490D02*
X184306898Y-84429252D01*
X184306898Y-84429252D02*
X184259279Y-84381633D01*
X184259279Y-84381633D02*
X184164041Y-84334014D01*
X184164041Y-84334014D02*
X183973565Y-84334014D01*
X183973565Y-84334014D02*
X183878327Y-84381633D01*
X183878327Y-84381633D02*
X183830708Y-84429252D01*
X183830708Y-84429252D02*
X183783089Y-84524490D01*
X183783089Y-84524490D02*
X183783089Y-84762585D01*
X183783089Y-84762585D02*
X183830708Y-84857823D01*
X183830708Y-84857823D02*
X183878327Y-84905442D01*
X183878327Y-84905442D02*
X183973565Y-84953061D01*
X183973565Y-84953061D02*
X184164041Y-84953061D01*
X184164041Y-84953061D02*
X184259279Y-84905442D01*
X184259279Y-84905442D02*
X184306898Y-84857823D01*
X184306898Y-84857823D02*
X184354517Y-84762585D01*
X182830708Y-59934014D02*
X182830708Y-58934014D01*
X182830708Y-58934014D02*
X183211660Y-58934014D01*
X183211660Y-58934014D02*
X183306898Y-58981633D01*
X183306898Y-58981633D02*
X183354517Y-59029252D01*
X183354517Y-59029252D02*
X183402136Y-59124490D01*
X183402136Y-59124490D02*
X183402136Y-59267347D01*
X183402136Y-59267347D02*
X183354517Y-59362585D01*
X183354517Y-59362585D02*
X183306898Y-59410204D01*
X183306898Y-59410204D02*
X183211660Y-59457823D01*
X183211660Y-59457823D02*
X182830708Y-59457823D01*
X184021184Y-58934014D02*
X184116422Y-58934014D01*
X184116422Y-58934014D02*
X184211660Y-58981633D01*
X184211660Y-58981633D02*
X184259279Y-59029252D01*
X184259279Y-59029252D02*
X184306898Y-59124490D01*
X184306898Y-59124490D02*
X184354517Y-59314966D01*
X184354517Y-59314966D02*
X184354517Y-59553061D01*
X184354517Y-59553061D02*
X184306898Y-59743537D01*
X184306898Y-59743537D02*
X184259279Y-59838775D01*
X184259279Y-59838775D02*
X184211660Y-59886395D01*
X184211660Y-59886395D02*
X184116422Y-59934014D01*
X184116422Y-59934014D02*
X184021184Y-59934014D01*
X184021184Y-59934014D02*
X183925946Y-59886395D01*
X183925946Y-59886395D02*
X183878327Y-59838775D01*
X183878327Y-59838775D02*
X183830708Y-59743537D01*
X183830708Y-59743537D02*
X183783089Y-59553061D01*
X183783089Y-59553061D02*
X183783089Y-59314966D01*
X183783089Y-59314966D02*
X183830708Y-59124490D01*
X183830708Y-59124490D02*
X183878327Y-59029252D01*
X183878327Y-59029252D02*
X183925946Y-58981633D01*
X183925946Y-58981633D02*
X184021184Y-58934014D01*
%TO.C,B1*%
X197022341Y-96921649D02*
X196875395Y-97123903D01*
X197022341Y-96921649D02*
X201876443Y-100448360D01*
X194965093Y-99753208D02*
X195112039Y-99550954D01*
X194965093Y-99753208D02*
X199819195Y-103279919D01*
X201876443Y-100448360D02*
X201729497Y-100650614D01*
X199819195Y-103279919D02*
X199966141Y-103077665D01*
D11*
%TO.C,D3*%
X73966553Y-73834352D02*
X74365031Y-73799490D01*
X74365031Y-73799490D02*
X74317095Y-73251582D01*
X74365031Y-73799490D02*
X74412967Y-74347397D01*
X74365031Y-73799490D02*
X74927885Y-73348718D01*
X74927885Y-73348718D02*
X74997610Y-74145674D01*
X74962748Y-73747196D02*
X75460845Y-73703618D01*
X74997610Y-74145674D02*
X74365031Y-73799490D01*
%TO.C,D23*%
X185617461Y-116447047D02*
X185941068Y-116682161D01*
X185941068Y-116682161D02*
X186264350Y-116237202D01*
X185941068Y-116682161D02*
X185617786Y-117127121D01*
X185941068Y-116682161D02*
X186661592Y-116711226D01*
X186661592Y-116711226D02*
X186191364Y-117358439D01*
X186426478Y-117034832D02*
X186830987Y-117328725D01*
X186191364Y-117358439D02*
X185941068Y-116682161D01*
%TO.C,D8*%
X110743929Y-76639195D02*
X111143929Y-76639195D01*
X111143929Y-76639195D02*
X111143929Y-76089195D01*
X111143929Y-76639195D02*
X111143929Y-77189195D01*
X111143929Y-76639195D02*
X111743929Y-76239195D01*
X111743929Y-76239195D02*
X111743929Y-77039195D01*
X111743929Y-76639195D02*
X112243929Y-76639195D01*
X111743929Y-77039195D02*
X111143929Y-76639195D01*
%TO.C,D18*%
X164743929Y-62639194D02*
X165143929Y-62639194D01*
X165143929Y-62639194D02*
X165143929Y-62089194D01*
X165143929Y-62639194D02*
X165143929Y-63189194D01*
X165143929Y-62639194D02*
X165743929Y-62239194D01*
X165743929Y-62239194D02*
X165743929Y-63039194D01*
X165743929Y-62639194D02*
X166243929Y-62639194D01*
X165743929Y-63039194D02*
X165143929Y-62639194D01*
%TO.C,D2*%
X75448201Y-90769662D02*
X75846679Y-90734800D01*
X75846679Y-90734800D02*
X75798743Y-90186892D01*
X75846679Y-90734800D02*
X75894615Y-91282707D01*
X75846679Y-90734800D02*
X76409533Y-90284028D01*
X76409533Y-90284028D02*
X76479258Y-91080984D01*
X76444396Y-90682506D02*
X76942493Y-90638928D01*
X76479258Y-91080984D02*
X75846679Y-90734800D01*
%TO.C,D21*%
X148835199Y-100013632D02*
X149226458Y-100096797D01*
X149226458Y-100096797D02*
X149340810Y-99558816D01*
X149226458Y-100096797D02*
X149112107Y-100634778D01*
X149226458Y-100096797D02*
X149896512Y-99830285D01*
X149896512Y-99830285D02*
X149730182Y-100612803D01*
X149813347Y-100221544D02*
X150302421Y-100325500D01*
X149730182Y-100612803D02*
X149226458Y-100096797D01*
%TO.C,D11*%
X128743929Y-71639195D02*
X129143929Y-71639195D01*
X129143929Y-71639195D02*
X129143929Y-71089195D01*
X129143929Y-71639195D02*
X129143929Y-72189195D01*
X129143929Y-71639195D02*
X129743929Y-71239195D01*
X129743929Y-71239195D02*
X129743929Y-72039195D01*
X129743929Y-71639195D02*
X130243929Y-71639195D01*
X129743929Y-72039195D02*
X129143929Y-71639195D01*
%TO.C,D1*%
X55250647Y-66437403D02*
X55649125Y-66402541D01*
X55649125Y-66402541D02*
X55601189Y-65854633D01*
X55649125Y-66402541D02*
X55697061Y-66950448D01*
X55649125Y-66402541D02*
X56211979Y-65951769D01*
X56211979Y-65951769D02*
X56281704Y-66748725D01*
X56246842Y-66350247D02*
X56744939Y-66306669D01*
X56281704Y-66748725D02*
X55649125Y-66402541D01*
%TO.C,D12*%
X128743929Y-54639195D02*
X129143929Y-54639195D01*
X129143929Y-54639195D02*
X129143929Y-54089195D01*
X129143929Y-54639195D02*
X129143929Y-55189195D01*
X129143929Y-54639195D02*
X129743929Y-54239195D01*
X129743929Y-54239195D02*
X129743929Y-55039195D01*
X129743929Y-54639195D02*
X130243929Y-54639195D01*
X129743929Y-55039195D02*
X129143929Y-54639195D01*
%TO.C,D15*%
X146743929Y-60639195D02*
X147143929Y-60639195D01*
X147143929Y-60639195D02*
X147143929Y-60089195D01*
X147143929Y-60639195D02*
X147143929Y-61189195D01*
X147143929Y-60639195D02*
X147743929Y-60239195D01*
X147743929Y-60239195D02*
X147743929Y-61039195D01*
X147743929Y-60639195D02*
X148243929Y-60639195D01*
X147743929Y-61039195D02*
X147143929Y-60639195D01*
%TO.C,D17*%
X164743929Y-79639195D02*
X165143929Y-79639195D01*
X165143929Y-79639195D02*
X165143929Y-79089195D01*
X165143929Y-79639195D02*
X165143929Y-80189195D01*
X165143929Y-79639195D02*
X165743929Y-79239195D01*
X165743929Y-79239195D02*
X165743929Y-80039195D01*
X165743929Y-79639195D02*
X166243929Y-79639195D01*
X165743929Y-80039195D02*
X165143929Y-79639195D01*
D12*
%TO.C,MCU1*%
X176543929Y-55609195D02*
X176543929Y-86209195D01*
X176543929Y-55609195D02*
X179203929Y-55609195D01*
X176543929Y-86209195D02*
X179203929Y-86209195D01*
X179203929Y-55609195D02*
X179203929Y-86209195D01*
X191783929Y-55609195D02*
X191783929Y-86209195D01*
X191783929Y-55609195D02*
X194443929Y-55609195D01*
X191783929Y-58209195D02*
X194443929Y-58209195D01*
X191783929Y-86209195D02*
X194443929Y-86209195D01*
X194443929Y-55609195D02*
X194443929Y-86209195D01*
D11*
%TO.C,D19*%
X164743929Y-45639194D02*
X165143929Y-45639194D01*
X165143929Y-45639194D02*
X165143929Y-45089194D01*
X165143929Y-45639194D02*
X165143929Y-46189194D01*
X165143929Y-45639194D02*
X165743929Y-45239194D01*
X165743929Y-45239194D02*
X165743929Y-46039194D01*
X165743929Y-45639194D02*
X166243929Y-45639194D01*
X165743929Y-46039194D02*
X165143929Y-45639194D01*
%TO.C,D14*%
X146743929Y-77639195D02*
X147143929Y-77639195D01*
X147143929Y-77639195D02*
X147143929Y-77089195D01*
X147143929Y-77639195D02*
X147143929Y-78189195D01*
X147143929Y-77639195D02*
X147743929Y-77239195D01*
X147743929Y-77239195D02*
X147743929Y-78039195D01*
X147743929Y-77639195D02*
X148243929Y-77639195D01*
X147743929Y-78039195D02*
X147143929Y-77639195D01*
%TO.C,D5*%
X93379705Y-89200859D02*
X93778183Y-89165997D01*
X93778183Y-89165997D02*
X93730247Y-88618089D01*
X93778183Y-89165997D02*
X93826119Y-89713904D01*
X93778183Y-89165997D02*
X94341037Y-88715225D01*
X94341037Y-88715225D02*
X94410762Y-89512181D01*
X94375900Y-89113703D02*
X94873997Y-89070125D01*
X94410762Y-89512181D02*
X93778183Y-89165997D01*
%TO.C,D4*%
X72484905Y-56899043D02*
X72883383Y-56864181D01*
X72883383Y-56864181D02*
X72835447Y-56316273D01*
X72883383Y-56864181D02*
X72931319Y-57412088D01*
X72883383Y-56864181D02*
X73446237Y-56413409D01*
X73446237Y-56413409D02*
X73515962Y-57210365D01*
X73481100Y-56811887D02*
X73979197Y-56768309D01*
X73515962Y-57210365D02*
X72883383Y-56864181D01*
%TO.C,D16*%
X146743929Y-43639195D02*
X147143929Y-43639195D01*
X147143929Y-43639195D02*
X147143929Y-43089195D01*
X147143929Y-43639195D02*
X147143929Y-44189195D01*
X147143929Y-43639195D02*
X147743929Y-43239195D01*
X147743929Y-43239195D02*
X147743929Y-44039195D01*
X147743929Y-43639195D02*
X148243929Y-43639195D01*
X147743929Y-44039195D02*
X147143929Y-43639195D01*
%TO.C,D13*%
X128743929Y-37639194D02*
X129143929Y-37639194D01*
X129143929Y-37639194D02*
X129143929Y-37089194D01*
X129143929Y-37639194D02*
X129143929Y-38189194D01*
X129143929Y-37639194D02*
X129743929Y-37239194D01*
X129743929Y-37239194D02*
X129743929Y-38039194D01*
X129743929Y-37639194D02*
X130243929Y-37639194D01*
X129743929Y-38039194D02*
X129143929Y-37639194D01*
%TO.C,D7*%
X90416410Y-55330239D02*
X90814888Y-55295377D01*
X90814888Y-55295377D02*
X90766952Y-54747469D01*
X90814888Y-55295377D02*
X90862824Y-55843284D01*
X90814888Y-55295377D02*
X91377742Y-54844605D01*
X91377742Y-54844605D02*
X91447467Y-55641561D01*
X91412605Y-55243083D02*
X91910702Y-55199505D01*
X91447467Y-55641561D02*
X90814888Y-55295377D01*
%TO.C,D6*%
X91898057Y-72265549D02*
X92296535Y-72230687D01*
X92296535Y-72230687D02*
X92248599Y-71682779D01*
X92296535Y-72230687D02*
X92344471Y-72778594D01*
X92296535Y-72230687D02*
X92859389Y-71779915D01*
X92859389Y-71779915D02*
X92929114Y-72576871D01*
X92894252Y-72178393D02*
X93392349Y-72134815D01*
X92929114Y-72576871D02*
X92296535Y-72230687D01*
%TO.C,D9*%
X110743929Y-59639194D02*
X111143929Y-59639194D01*
X111143929Y-59639194D02*
X111143929Y-59089194D01*
X111143929Y-59639194D02*
X111143929Y-60189194D01*
X111143929Y-59639194D02*
X111743929Y-59239194D01*
X111743929Y-59239194D02*
X111743929Y-60039194D01*
X111743929Y-59639194D02*
X112243929Y-59639194D01*
X111743929Y-60039194D02*
X111143929Y-59639194D01*
%TO.C,D20*%
X128743929Y-97639194D02*
X129143929Y-97639194D01*
X129143929Y-97639194D02*
X129143929Y-97089194D01*
X129143929Y-97639194D02*
X129143929Y-98189194D01*
X129143929Y-97639194D02*
X129743929Y-97239194D01*
X129743929Y-97239194D02*
X129743929Y-98039194D01*
X129743929Y-97639194D02*
X130243929Y-97639194D01*
X129743929Y-98039194D02*
X129143929Y-97639194D01*
%TO.C,D22*%
X167993754Y-106513394D02*
X168359172Y-106676088D01*
X168359172Y-106676088D02*
X168582877Y-106173638D01*
X168359172Y-106676088D02*
X168135467Y-107178538D01*
X168359172Y-106676088D02*
X169069994Y-106554712D01*
X169069994Y-106554712D02*
X168744605Y-107285548D01*
X168907299Y-106920130D02*
X169364072Y-107123498D01*
X168744605Y-107285548D02*
X168359172Y-106676088D01*
%TO.C,D10*%
X110743929Y-42639194D02*
X111143929Y-42639194D01*
X111143929Y-42639194D02*
X111143929Y-42089194D01*
X111143929Y-42639194D02*
X111143929Y-43189194D01*
X111143929Y-42639194D02*
X111743929Y-42239194D01*
X111743929Y-42239194D02*
X111743929Y-43039194D01*
X111743929Y-42639194D02*
X112243929Y-42639194D01*
X111743929Y-43039194D02*
X111143929Y-42639194D01*
%TD*%
D13*
%TO.C,B1*%
X201050073Y-102011086D03*
X195791463Y-98190482D03*
%TD*%
M02*
