M48
; DRILL file {KiCad 7.0.10} date Sun Feb 18 22:51:35 2024
; FORMAT={-:-/ absolute / inch / decimal}
; #@! TF.CreationDate,2024-02-18T22:51:35+03:00
; #@! TF.GenerationSoftware,Kicad,Pcbnew,7.0.10
; #@! TF.FileFunction,NonPlated,1,2,NPTH
FMAT,2
INCH
; #@! TA.AperFunction,NonPlated,NPTH,ComponentDrill
T1C0.0591
; #@! TA.AperFunction,NonPlated,NPTH,ComponentDrill
T2C0.0670
; #@! TA.AperFunction,NonPlated,NPTH,ComponentDrill
T3C0.1181
; #@! TA.AperFunction,NonPlated,NPTH,ComponentDrill
T4C0.1350
%
G90
G05
T1
X7.5483Y-3.5865
X7.8228Y-3.5625
T2
X1.9718Y-2.4358
X2.4032Y-2.3981
X2.6503Y-2.0603
X2.7086Y-2.7271
X2.7669Y-3.3938
X3.0817Y-2.0226
X3.14Y-2.6893
X3.1984Y-3.3561
X3.3562Y-1.9986
X3.4146Y-2.6653
X3.4729Y-3.332
X3.7877Y-1.9608
X3.846Y-2.6276
X3.9043Y-3.2943
X4.173Y-1.4819
X4.173Y-2.1511
X4.173Y-2.8204
X4.6061Y-1.4819
X4.6061Y-2.1511
X4.6061Y-2.8204
X4.8817Y-1.285
X4.8817Y-1.9543
X4.8817Y-2.6236
X4.8817Y-3.6472
X5.3147Y-1.285
X5.3147Y-1.9543
X5.3147Y-2.6236
X5.3147Y-3.6472
X5.5903Y-1.5212
X5.5903Y-2.1905
X5.5903Y-2.8598
X5.7177Y-3.7061
X6.0234Y-1.5212
X6.0234Y-2.1905
X6.0234Y-2.8598
X6.1413Y-3.7962
X6.299Y-1.6
X6.299Y-2.2693
X6.299Y-2.9386
X6.5232Y-3.9375
X6.732Y-1.6
X6.732Y-2.2693
X6.732Y-2.9386
X6.9188Y-4.1137
X7.2722Y-4.3154
X7.6225Y-4.5699
T3
X1.9785Y-2.2871
X2.1671Y-2.1836
X2.1671Y-2.1836
X2.3707Y-2.2527
X2.657Y-1.9115
X2.7154Y-2.5783
X2.7737Y-3.245
X2.8456Y-1.8081
X2.8456Y-1.8081
X2.9039Y-2.4748
X2.9039Y-2.4748
X2.9622Y-3.1416
X2.9622Y-3.1416
X3.0492Y-1.8772
X3.1076Y-2.544
X3.1659Y-3.2107
X3.363Y-1.8498
X3.4213Y-2.5165
X3.4797Y-3.1833
X3.5515Y-1.7463
X3.5515Y-1.7463
X3.6099Y-2.4131
X3.6099Y-2.4131
X3.6682Y-3.0798
X3.6682Y-3.0798
X3.7552Y-1.8154
X3.8135Y-2.4822
X3.8719Y-3.1489
X4.1927Y-1.3342
X4.1927Y-2.0035
X4.1927Y-2.6728
X4.3895Y-1.2476
X4.3895Y-1.2476
X4.3895Y-1.9169
X4.3895Y-1.9169
X4.3895Y-2.5862
X4.3895Y-2.5862
X4.5864Y-1.3342
X4.5864Y-2.0035
X4.5864Y-2.6728
X4.9013Y-1.1374
X4.9013Y-1.8067
X4.9013Y-2.476
X4.9013Y-3.4996
X5.0982Y-1.0508
X5.0982Y-1.0508
X5.0982Y-1.72
X5.0982Y-1.72
X5.0982Y-2.3893
X5.0982Y-2.3893
X5.0982Y-3.413
X5.0982Y-3.413
X5.295Y-1.1374
X5.295Y-1.8067
X5.295Y-2.476
X5.295Y-3.4996
X5.61Y-1.3736
X5.61Y-2.0429
X5.61Y-2.7122
X5.7676Y-3.5658
X5.8068Y-1.287
X5.8068Y-1.287
X5.8068Y-1.9563
X5.8068Y-1.9563
X5.8068Y-2.6256
X5.8068Y-2.6256
X5.9782Y-3.522
X5.9782Y-3.522
X6.0037Y-1.3736
X6.0037Y-2.0429
X6.0037Y-2.7122
X6.1527Y-3.6477
X6.3187Y-1.4523
X6.3187Y-2.1216
X6.3187Y-2.7909
X6.5155Y-1.3657
X6.5155Y-1.3657
X6.5155Y-2.035
X6.5155Y-2.035
X6.5155Y-2.7043
X6.5155Y-2.7043
X6.6012Y-3.8107
X6.7124Y-1.4523
X6.7124Y-2.1216
X6.7124Y-2.7909
X6.8162Y-3.8116
X6.8162Y-3.8116
X6.9608Y-3.9708
X7.3749Y-4.2075
X7.5851Y-4.2531
X7.5851Y-4.2531
X7.6934Y-4.4389
T4
X2.1875Y-2.417
X2.866Y-2.0414
X2.9243Y-2.7082
X2.9827Y-3.3749
X3.572Y-1.9797
X3.6303Y-2.6464
X3.6886Y-3.3132
X4.3895Y-1.4819
X4.3895Y-2.1511
X4.3895Y-2.8204
X5.0982Y-1.285
X5.0982Y-1.9543
X5.0982Y-2.6236
X5.0982Y-3.6472
X5.8068Y-1.5212
X5.8068Y-2.1905
X5.8068Y-2.8598
X5.9295Y-3.7511
X6.5155Y-1.6
X6.5155Y-2.2693
X6.5155Y-2.9386
X6.721Y-4.0256
X7.4474Y-4.4426
M30
