<svg width="160.123mm" height="105.014mm" viewBox="0 0 160.123 105.014" xmlns="http://www.w3.org/2000/svg"><g id="svgGroup" stroke-linecap="round" fill-rule="evenodd" font-size="9pt" stroke="#000" stroke-width="0.25mm" fill="none" style="stroke:#000;stroke-width:0.25mm;fill:none"><path d="M 17.367 20.073 L 73.737 0.282 A 5 5 0 0 1 75.393 0 L 95.992 0 A 5 5 0 0 1 97.077 0.119 L 128.626 7.13 A 5 5 0 0 1 132.541 12.011 L 132.541 24 A 5 5 0 0 0 137.541 29 L 149.999 29 A 5 5 0 0 1 154.976 33.521 L 160.1 86.789 A 5 5 0 0 1 159.168 90.207 L 149.907 102.953 A 5 5 0 0 1 144.682 104.873 L 23.373 75.394 A 5 5 0 0 1 20.706 73.729 L 2.564 51.872 A 5 5 0 0 1 1.43 49.115 L 0.019 32.988 A 5 5 0 0 1 2.579 28.177 L 16.602 20.416 A 5 5 0 0 1 17.367 20.073 Z M 115.411 84.089 L 131.398 91.207 L 138.109 76.134 L 122.122 69.016 L 115.411 84.089 Z M 96.381 79.39 L 113.499 83.029 L 116.93 66.889 L 99.812 63.251 L 96.381 79.39 Z M 133.282 92.235 L 147.44 102.521 L 157.138 89.172 L 142.981 78.886 L 133.282 92.235 Z M 58.791 57.75 L 76.291 57.75 L 76.291 41.25 L 58.791 41.25 L 58.791 57.75 Z M 58.791 40.75 L 76.291 40.75 L 76.291 24.25 L 58.791 24.25 L 58.791 40.75 Z M 58.791 23.75 L 76.291 23.75 L 76.291 7.25 L 58.791 7.25 L 58.791 23.75 Z M 76.791 52.75 L 94.291 52.75 L 94.291 36.25 L 76.791 36.25 L 76.791 52.75 Z M 76.791 35.75 L 94.291 35.75 L 94.291 19.25 L 76.791 19.25 L 76.791 35.75 Z M 76.791 18.75 L 94.291 18.75 L 94.291 2.25 L 76.791 2.25 L 76.791 18.75 Z M 94.791 58.75 L 112.291 58.75 L 112.291 42.25 L 94.791 42.25 L 94.791 58.75 Z M 94.791 41.75 L 112.291 41.75 L 112.291 25.25 L 94.791 25.25 L 94.791 41.75 Z M 94.791 24.75 L 112.291 24.75 L 112.291 8.25 L 94.791 8.25 L 94.791 24.75 Z M 112.791 60.75 L 130.291 60.75 L 130.291 44.25 L 112.791 44.25 L 112.791 60.75 Z M 112.791 43.75 L 130.291 43.75 L 130.291 27.25 L 112.791 27.25 L 112.791 43.75 Z M 112.791 26.75 L 130.291 26.75 L 130.291 10.25 L 112.791 10.25 L 112.791 26.75 Z M 76.791 78.75 L 94.291 78.75 L 94.291 62.25 L 76.791 62.25 L 76.791 78.75 Z M 23.809 72.565 L 41.242 71.04 L 39.804 54.603 L 22.371 56.128 L 23.809 72.565 Z M 20.846 38.695 L 38.279 37.17 L 36.841 20.732 L 19.408 22.258 L 20.846 38.695 Z M 22.327 55.63 L 39.761 54.105 L 38.323 37.668 L 20.889 39.193 L 22.327 55.63 Z M 3.611 48.233 L 21.045 46.708 L 19.607 30.271 L 2.173 31.796 L 3.611 48.233 Z M 41.74 70.997 L 59.174 69.471 L 57.736 53.034 L 40.302 54.559 L 41.74 70.997 Z M 40.259 54.061 L 57.692 52.536 L 56.254 36.099 L 38.821 37.624 L 40.259 54.061 Z M 38.777 37.126 L 56.211 35.601 L 54.773 19.163 L 37.339 20.689 L 38.777 37.126 Z" vector-effect="non-scaling-stroke"/></g></svg>