<svg width="160.545mm" height="105.664mm" viewBox="0 0 160.545 105.664" xmlns="http://www.w3.org/2000/svg"><g id="svgGroup" stroke-linecap="round" fill-rule="evenodd" font-size="9pt" stroke="#000" stroke-width="0.25mm" fill="none" style="stroke:#000;stroke-width:0.25mm;fill:none"><path d="M 17.234 20.212 L 74.805 0 L 96.805 0 L 132.805 8 L 132.805 29.2 L 154.805 29.2 L 160.545 88.675 L 148.202 105.664 L 22.028 75.003 L 1.83 50.671 L 0 29.751 L 17.234 20.212 Z M 15.158 26.316 m -2 0 a 2 2 0 0 1 4 0 a 2 2 0 0 1 -4 0 z M 18.622 64.761 m -2 0 a 2 2 0 0 1 4 0 a 2 2 0 0 1 -4 0 z M 99.405 3.9 m -2 0 a 2 2 0 0 1 4 0 a 2 2 0 0 1 -4 0 z M 76.805 36 m -2 0 a 2 2 0 0 1 4 0 a 2 2 0 0 1 -4 0 z M 72.305 70.5 m -2 0 a 2 2 0 0 1 4 0 a 2 2 0 0 1 -4 0 z M 134.34 98.374 m -2 0 a 2 2 0 0 1 4 0 a 2 2 0 0 1 -4 0 z M 130.805 27 m -2 0 a 2 2 0 0 1 4 0 a 2 2 0 0 1 -4 0 z" vector-effect="non-scaling-stroke"/></g></svg>