<svg width="160.545mm" height="105.664mm" viewBox="0 0 160.545 105.664" xmlns="http://www.w3.org/2000/svg"><g id="svgGroup" stroke-linecap="round" fill-rule="evenodd" font-size="9pt" stroke="#000" stroke-width="0.25mm" fill="none" style="stroke:#000;stroke-width:0.25mm;fill:none"><path d="M 17.234 20.212 L 74.805 0 L 96.805 0 L 132.805 8 L 132.805 29.2 L 154.805 29.2 L 160.545 88.675 L 148.202 105.664 L 22.028 75.003 L 1.83 50.671 L 0 29.751 L 17.234 20.212 Z M 115.675 84.089 L 131.662 91.207 L 138.373 76.134 L 122.386 69.016 L 115.675 84.089 Z M 96.646 79.39 L 113.763 83.029 L 117.194 66.889 L 100.076 63.251 L 96.646 79.39 Z M 133.546 92.235 L 147.704 102.521 L 157.403 89.172 L 143.245 78.886 L 133.546 92.235 Z M 59.055 57.75 L 76.555 57.75 L 76.555 41.25 L 59.055 41.25 L 59.055 57.75 Z M 59.055 40.75 L 76.555 40.75 L 76.555 24.25 L 59.055 24.25 L 59.055 40.75 Z M 59.055 23.75 L 76.555 23.75 L 76.555 7.25 L 59.055 7.25 L 59.055 23.75 Z M 77.055 52.75 L 94.555 52.75 L 94.555 36.25 L 77.055 36.25 L 77.055 52.75 Z M 77.055 35.75 L 94.555 35.75 L 94.555 19.25 L 77.055 19.25 L 77.055 35.75 Z M 77.055 18.75 L 94.555 18.75 L 94.555 2.25 L 77.055 2.25 L 77.055 18.75 Z M 95.055 58.75 L 112.555 58.75 L 112.555 42.25 L 95.055 42.25 L 95.055 58.75 Z M 95.055 41.75 L 112.555 41.75 L 112.555 25.25 L 95.055 25.25 L 95.055 41.75 Z M 95.055 24.75 L 112.555 24.75 L 112.555 8.25 L 95.055 8.25 L 95.055 24.75 Z M 113.055 60.75 L 130.555 60.75 L 130.555 44.25 L 113.055 44.25 L 113.055 60.75 Z M 113.055 43.75 L 130.555 43.75 L 130.555 27.25 L 113.055 27.25 L 113.055 43.75 Z M 113.055 26.75 L 130.555 26.75 L 130.555 10.25 L 113.055 10.25 L 113.055 26.75 Z M 77.055 78.75 L 94.555 78.75 L 94.555 62.25 L 77.055 62.25 L 77.055 78.75 Z M 24.073 72.565 L 41.507 71.04 L 40.068 54.603 L 22.635 56.128 L 24.073 72.565 Z M 21.11 38.695 L 38.543 37.17 L 37.105 20.732 L 19.672 22.258 L 21.11 38.695 Z M 22.592 55.63 L 40.025 54.105 L 38.587 37.668 L 21.153 39.193 L 22.592 55.63 Z M 3.876 48.233 L 21.309 46.708 L 19.871 30.271 L 2.438 31.796 L 3.876 48.233 Z M 42.005 70.997 L 59.438 69.471 L 58 53.034 L 40.567 54.559 L 42.005 70.997 Z M 40.523 54.061 L 57.956 52.536 L 56.518 36.099 L 39.085 37.624 L 40.523 54.061 Z M 39.041 37.126 L 56.475 35.601 L 55.037 19.163 L 37.603 20.689 L 39.041 37.126 Z" vector-effect="non-scaling-stroke"/></g></svg>