0
SECTION
2
HEADER
9
$INSUNITS
70
4
0
ENDSEC
0
SECTION
2
TABLES
0
TABLE
2
LTYPE
0
LTYPE
72
65
70
64
2
CONTINUOUS
3
______
73
0
40
0
0
ENDTAB
0
TABLE
2
LAYER
0
ENDTAB
0
ENDSEC
0
SECTION
2
ENTITIES
0
LINE
8
0
10
60.9229955
20
-42.3513708
11
118.493929
21
-22.1391944
0
LINE
8
0
10
118.493929
20
-22.1391944
11
140.493929
21
-22.1391944
0
LINE
8
0
10
140.493929
20
-22.1391944
11
176.493929
21
-30.1391944
0
LINE
8
0
10
176.493929
20
-30.1391944
11
176.4939291
21
-51.3391944
0
LINE
8
0
10
176.4939291
20
-51.3391944
11
198.4939291
21
-51.3391944
0
LINE
8
0
10
198.4939291
20
-51.3391944
11
204.2340819
21
-110.8137606
0
LINE
8
0
10
204.2340819
20
-110.8137606
11
191.8905916
21
-127.8031175
0
LINE
8
0
10
191.8905916
20
-127.8031175
11
65.7165614
21
-97.1420792
0
LINE
8
0
10
65.7165614
20
-97.1420792
11
45.5190075
21
-72.8098204
0
LINE
8
0
10
45.5190075
20
-72.8098204
11
43.6887369
21
-51.8897317
0
LINE
8
0
10
43.6887369
20
-51.8897317
11
60.9229955
21
-42.3513708
0
LINE
8
0
10
47.5643452
20
-70.3722819
11
64.9977524
21
-68.8470564
0
LINE
8
0
10
64.9977524
20
-68.8470564
11
63.5596826
21
-52.4098439
0
LINE
8
0
10
63.5596826
20
-52.4098439
11
46.1262754
21
-53.9350694
0
LINE
8
0
10
46.1262754
20
-53.9350694
11
47.5643452
21
-70.3722819
0
LINE
8
0
10
67.7618991
20
-94.7045407
11
85.1953063
21
-93.1793152
0
LINE
8
0
10
85.1953063
20
-93.1793152
11
83.7572365
21
-76.7421027
0
LINE
8
0
10
83.7572365
20
-76.7421027
11
66.3238293
21
-78.2673282
0
LINE
8
0
10
66.3238293
20
-78.2673282
11
67.7618991
21
-94.7045407
0
LINE
8
0
10
66.2802515
20
-77.7692309
11
83.7136587
21
-76.2440054
0
LINE
8
0
10
83.7136587
20
-76.2440054
11
82.2755889
21
-59.8067929
0
LINE
8
0
10
82.2755889
20
-59.8067929
11
64.8421817
21
-61.3320184
0
LINE
8
0
10
64.8421817
20
-61.3320184
11
66.2802515
21
-77.7692309
0
LINE
8
0
10
64.7986038
20
-60.833921
11
82.232011
21
-59.3086955
0
LINE
8
0
10
82.232011
20
-59.3086955
11
80.7939412
21
-42.871483
0
LINE
8
0
10
80.7939412
20
-42.871483
11
63.360534
21
-44.3967085
0
LINE
8
0
10
63.360534
20
-44.3967085
11
64.7986038
21
-60.833921
0
LINE
8
0
10
85.6934037
20
-93.1357373
11
103.1268109
21
-91.6105118
0
LINE
8
0
10
103.1268109
20
-91.6105118
11
101.6887411
21
-75.1732993
0
LINE
8
0
10
101.6887411
20
-75.1732993
11
84.2553339
21
-76.6985248
0
LINE
8
0
10
84.2553339
20
-76.6985248
11
85.6934037
21
-93.1357373
0
LINE
8
0
10
84.211756
20
-76.2004275
11
101.6451632
21
-74.675202
0
LINE
8
0
10
101.6451632
20
-74.675202
11
100.2070934
21
-58.2379895
0
LINE
8
0
10
100.2070934
20
-58.2379895
11
82.7736862
21
-59.763215
0
LINE
8
0
10
82.7736862
20
-59.763215
11
84.211756
21
-76.2004275
0
LINE
8
0
10
82.7301084
20
-59.2651176
11
100.1635156
21
-57.7398921
0
LINE
8
0
10
100.1635156
20
-57.7398921
11
98.7254458
21
-41.3026796
0
LINE
8
0
10
98.7254458
20
-41.3026796
11
81.2920386
21
-42.8279051
0
LINE
8
0
10
81.2920386
20
-42.8279051
11
82.7301084
21
-59.2651176
0
LINE
8
0
10
102.7439291
20
-79.8891945
11
120.2439291
21
-79.8891945
0
LINE
8
0
10
120.2439291
20
-79.8891945
11
120.2439291
21
-63.3891945
0
LINE
8
0
10
120.2439291
20
-63.3891945
11
102.7439291
21
-63.3891945
0
LINE
8
0
10
102.7439291
20
-63.3891945
11
102.7439291
21
-79.8891945
0
LINE
8
0
10
102.743929
20
-62.8891944
11
120.243929
21
-62.8891944
0
LINE
8
0
10
120.243929
20
-62.8891944
11
120.243929
21
-46.3891944
0
LINE
8
0
10
120.243929
20
-46.3891944
11
102.743929
21
-46.3891944
0
LINE
8
0
10
102.743929
20
-46.3891944
11
102.743929
21
-62.8891944
0
LINE
8
0
10
102.743929
20
-45.8891944
11
120.243929
21
-45.8891944
0
LINE
8
0
10
120.243929
20
-45.8891944
11
120.243929
21
-29.3891944
0
LINE
8
0
10
120.243929
20
-29.3891944
11
102.743929
21
-29.3891944
0
LINE
8
0
10
102.743929
20
-29.3891944
11
102.743929
21
-45.8891944
0
LINE
8
0
10
120.7439291
20
-74.8891945
11
138.2439291
21
-74.8891945
0
LINE
8
0
10
138.2439291
20
-74.8891945
11
138.2439291
21
-58.3891945
0
LINE
8
0
10
138.2439291
20
-58.3891945
11
120.7439291
21
-58.3891945
0
LINE
8
0
10
120.7439291
20
-58.3891945
11
120.7439291
21
-74.8891945
0
LINE
8
0
10
120.7439291
20
-57.8891945
11
138.2439291
21
-57.8891945
0
LINE
8
0
10
138.2439291
20
-57.8891945
11
138.2439291
21
-41.3891945
0
LINE
8
0
10
138.2439291
20
-41.3891945
11
120.7439291
21
-41.3891945
0
LINE
8
0
10
120.7439291
20
-41.3891945
11
120.7439291
21
-57.8891945
0
LINE
8
0
10
120.743929
20
-40.8891944
11
138.243929
21
-40.8891944
0
LINE
8
0
10
138.243929
20
-40.8891944
11
138.243929
21
-24.3891944
0
LINE
8
0
10
138.243929
20
-24.3891944
11
120.743929
21
-24.3891944
0
LINE
8
0
10
120.743929
20
-24.3891944
11
120.743929
21
-40.8891944
0
LINE
8
0
10
138.7439291
20
-80.8891945
11
156.2439291
21
-80.8891945
0
LINE
8
0
10
156.2439291
20
-80.8891945
11
156.2439291
21
-64.3891945
0
LINE
8
0
10
156.2439291
20
-64.3891945
11
138.7439291
21
-64.3891945
0
LINE
8
0
10
138.7439291
20
-64.3891945
11
138.7439291
21
-80.8891945
0
LINE
8
0
10
138.7439291
20
-63.8891945
11
156.2439291
21
-63.8891945
0
LINE
8
0
10
156.2439291
20
-63.8891945
11
156.2439291
21
-47.3891945
0
LINE
8
0
10
156.2439291
20
-47.3891945
11
138.7439291
21
-47.3891945
0
LINE
8
0
10
138.7439291
20
-47.3891945
11
138.7439291
21
-63.8891945
0
LINE
8
0
10
138.743929
20
-46.8891945
11
156.243929
21
-46.8891945
0
LINE
8
0
10
156.243929
20
-46.8891945
11
156.243929
21
-30.3891945
0
LINE
8
0
10
156.243929
20
-30.3891945
11
138.743929
21
-30.3891945
0
LINE
8
0
10
138.743929
20
-30.3891945
11
138.743929
21
-46.8891945
0
LINE
8
0
10
156.7439291
20
-82.8891945
11
174.2439291
21
-82.8891945
0
LINE
8
0
10
174.2439291
20
-82.8891945
11
174.2439291
21
-66.3891945
0
LINE
8
0
10
174.2439291
20
-66.3891945
11
156.7439291
21
-66.3891945
0
LINE
8
0
10
156.7439291
20
-66.3891945
11
156.7439291
21
-82.8891945
0
LINE
8
0
10
156.7439291
20
-65.8891944
11
174.2439291
21
-65.8891944
0
LINE
8
0
10
174.2439291
20
-65.8891944
11
174.2439291
21
-49.3891944
0
LINE
8
0
10
174.2439291
20
-49.3891944
11
156.7439291
21
-49.3891944
0
LINE
8
0
10
156.7439291
20
-49.3891944
11
156.7439291
21
-65.8891944
0
LINE
8
0
10
156.743929
20
-48.8891944
11
174.243929
21
-48.8891944
0
LINE
8
0
10
174.243929
20
-48.8891944
11
174.243929
21
-32.3891944
0
LINE
8
0
10
174.243929
20
-32.3891944
11
156.743929
21
-32.3891944
0
LINE
8
0
10
156.743929
20
-32.3891944
11
156.743929
21
-48.8891944
0
LINE
8
0
10
120.7439291
20
-100.8891944
11
138.2439291
21
-100.8891944
0
LINE
8
0
10
138.2439291
20
-100.8891944
11
138.2439291
21
-84.3891944
0
LINE
8
0
10
138.2439291
20
-84.3891944
11
120.7439291
21
-84.3891944
0
LINE
8
0
10
120.7439291
20
-84.3891944
11
120.7439291
21
-100.8891944
0
LINE
8
0
10
140.3343056
20
-101.5293188
11
157.4518887
21
-105.1677734
0
LINE
8
0
10
157.4518887
20
-105.1677734
11
160.8824316
21
-89.028338
0
LINE
8
0
10
160.8824316
20
-89.028338
11
143.7648485
21
-85.3898834
0
LINE
8
0
10
143.7648485
20
-85.3898834
11
140.3343056
21
-101.5293188
0
LINE
8
0
10
159.3634961
20
-106.2285233
11
175.3505416
21
-113.3464146
0
LINE
8
0
10
175.3505416
20
-113.3464146
11
182.0616963
21
-98.2729145
0
LINE
8
0
10
182.0616963
20
-98.2729145
11
166.0746508
21
-91.1550232
0
LINE
8
0
10
166.0746508
20
-91.1550232
11
159.3634961
21
-106.2285233
0
LINE
8
0
10
177.2350228
20
-114.3740705
11
191.3928202
21
-124.6603125
0
LINE
8
0
10
191.3928202
20
-124.6603125
11
201.0912768
21
-111.3115321
0
LINE
8
0
10
201.0912768
20
-111.3115321
11
186.9334794
21
-101.0252901
0
LINE
8
0
10
186.9334794
20
-101.0252901
11
177.2350228
21
-114.3740705
0
ENDSEC
0
EOF