<svg width="154.965mm" height="100.271mm" viewBox="0 0 154.965 100.271" xmlns="http://www.w3.org/2000/svg"><g id="svgGroup" stroke-linecap="round" fill-rule="evenodd" font-size="9pt" stroke="#000" stroke-width="0.25mm" fill="none" style="stroke:#000;stroke-width:0.25mm;fill:none"><path d="M 113.237 81.839 L 129.224 88.957 L 135.935 73.884 L 119.948 66.766 L 113.237 81.839 Z M 94.208 77.14 L 111.326 80.779 L 114.756 64.639 L 97.639 61.001 L 94.208 77.14 Z M 131.109 89.985 L 145.267 100.271 L 154.965 86.922 L 140.807 76.636 L 131.109 89.985 Z M 56.618 55.5 L 74.118 55.5 L 74.118 39 L 56.618 39 L 56.618 55.5 Z M 56.618 38.5 L 74.118 38.5 L 74.118 22 L 56.618 22 L 56.618 38.5 Z M 56.618 21.5 L 74.118 21.5 L 74.118 5 L 56.618 5 L 56.618 21.5 Z M 74.618 50.5 L 92.118 50.5 L 92.118 34 L 74.618 34 L 74.618 50.5 Z M 74.618 33.5 L 92.118 33.5 L 92.118 17 L 74.618 17 L 74.618 33.5 Z M 74.618 16.5 L 92.118 16.5 L 92.118 0 L 74.618 0 L 74.618 16.5 Z M 92.618 56.5 L 110.118 56.5 L 110.118 40 L 92.618 40 L 92.618 56.5 Z M 92.618 39.5 L 110.118 39.5 L 110.118 23 L 92.618 23 L 92.618 39.5 Z M 92.618 22.5 L 110.118 22.5 L 110.118 6 L 92.618 6 L 92.618 22.5 Z M 110.618 58.5 L 128.118 58.5 L 128.118 42 L 110.618 42 L 110.618 58.5 Z M 110.618 41.5 L 128.118 41.5 L 128.118 25 L 110.618 25 L 110.618 41.5 Z M 110.618 24.5 L 128.118 24.5 L 128.118 8 L 110.618 8 L 110.618 24.5 Z M 74.618 76.5 L 92.118 76.5 L 92.118 60 L 74.618 60 L 74.618 76.5 Z M 21.636 70.315 L 39.069 68.79 L 37.631 52.353 L 20.198 53.878 L 21.636 70.315 Z M 18.672 36.445 L 36.106 34.92 L 34.668 18.482 L 17.234 20.008 L 18.672 36.445 Z M 20.154 53.38 L 37.587 51.855 L 36.149 35.418 L 18.716 36.943 L 20.154 53.38 Z M 1.438 45.983 L 18.871 44.458 L 17.433 28.021 L 0 29.546 L 1.438 45.983 Z M 39.567 68.747 L 57.001 67.221 L 55.562 50.784 L 38.129 52.309 L 39.567 68.747 Z M 38.085 51.811 L 55.519 50.286 L 54.081 33.849 L 36.647 35.374 L 38.085 51.811 Z M 36.604 34.876 L 54.037 33.351 L 52.599 16.913 L 35.166 18.439 L 36.604 34.876 Z" vector-effect="non-scaling-stroke"/></g></svg>