<svg width="123.181mm" height="98.474mm" viewBox="0 0 123.181 98.474" xmlns="http://www.w3.org/2000/svg"><g id="svgGroup" stroke-linecap="round" fill-rule="evenodd" font-size="9pt" stroke="#000" stroke-width="0.25mm" fill="none" style="stroke:#000;stroke-width:0.25mm;fill:none"><path d="M 2 24.416 m -2 0 a 2 2 0 0 1 4 0 a 2 2 0 0 1 -4 0 z M 5.464 62.861 m -2 0 a 2 2 0 0 1 4 0 a 2 2 0 0 1 -4 0 z M 86.247 2 m -2 0 a 2 2 0 0 1 4 0 a 2 2 0 0 1 -4 0 z M 63.647 34.1 m -2 0 a 2 2 0 0 1 4 0 a 2 2 0 0 1 -4 0 z M 59.147 68.6 m -2 0 a 2 2 0 0 1 4 0 a 2 2 0 0 1 -4 0 z M 121.181 96.474 m -2 0 a 2 2 0 0 1 4 0 a 2 2 0 0 1 -4 0 z M 117.647 25.1 m -2 0 a 2 2 0 0 1 4 0 a 2 2 0 0 1 -4 0 z" vector-effect="non-scaling-stroke"/></g></svg>