<svg width="165.173mm" height="109.806mm" viewBox="0 0 165.173 109.806" xmlns="http://www.w3.org/2000/svg"><g id="svgGroup" stroke-linecap="round" fill-rule="evenodd" font-size="9pt" stroke="#000" stroke-width="0.25mm" fill="none" style="stroke:#000;stroke-width:0.25mm;fill:none"><path d="M 17.362 20.256 L 73.9 0.285 A 5 5 0 0 1 75.565 0 L 100.159 0 A 5 5 0 0 1 101.244 0.119 L 132.792 7.13 A 5 5 0 0 1 136.708 12.011 L 136.708 25 A 5 5 0 0 0 141.708 30 L 157.914 30 A 5 5 0 0 1 162.909 34.79 L 165.168 88.492 A 5 5 0 0 1 164.218 91.641 L 152.518 107.745 A 5 5 0 0 1 147.289 109.664 L 23.72 79.561 A 5 5 0 0 1 21.056 77.897 L 2.912 56.039 A 5 5 0 0 1 1.779 53.281 L 0.019 33.169 A 5 5 0 0 1 2.579 28.359 L 16.606 20.595 A 5 5 0 0 1 17.362 20.256 Z" vector-effect="non-scaling-stroke"/></g></svg>